<?xml version="1.0" encoding="UTF-8"?><svg xmlns="http://www.w3.org/2000/svg" xmlns:xlink="http://www.w3.org/1999/xlink" height="344.4" preserveAspectRatio="xMidYMid meet" version="1.0" viewBox="-0.0 -1.2 500.8 344.4" width="500.8" zoomAndPan="magnify"><g id="change1_1"><path d="M139.5,42c8.5-5.2,17.7-9,27.4-11.3c7.4-1.7,15.2-2.7,21.6-6.8c4.7-3.1,8.5-7.8,13.8-9.7 c7.3-2.7,15.8,0.5,22.9-2.5c6.2-2.6,10.1-9.3,16.5-11.2c5.7-1.7,11.9,0.9,16.5,4.7c4.6,3.8,8.2,8.7,12.6,12.8c2.2,2,4.8,3.8,7.7,3.6 c1.5-0.1,2.9-0.8,4.4-0.9c3.7-0.3,7,2.1,7.8,5.7c0.5,2.9-0.6,6.7,1.8,8.5c1.3,1,3,1,4.6,1.3c1.6,0.3,3.3,1.5,3.1,3.1 c-0.2,1.7-2.4,2.3-4.1,2.5c-10.8,1.2-21.6,2.2-32.4,2.9c-17.2,1.1-35.8-0.8-52.7,2.6c-15.4,3.1-33.7,3-48.4-3.2 c-2.2-0.9-4.4-2-6.8-2c-1.5,0.1-3,0.4-4.4,0.9C147.3,43.9,143.2,43.5,139.5,42z M223.8,197.4c1.7,0.2,3.4,1.1,5.1,1.4 c4.3,0.7,8.2-2.6,11.6-5.8c0.5-1.1-0.9-1.9-1.9-1.9l-18.2-0.4c-4.5-0.1-9.3-0.3-13.1-3.2c-1.1-1-2.4-2-3.6-2.8 c-3.8-2.1-8.3,0.1-12.5-0.2c-3.4-0.2-6.6-2.2-9.9-3.2c-5.4-1.5-11.1-0.6-15.8,2.5c-4.7,3-7.5,8.8-13.1,9.8c-1.7,0.3-3.4,0.2-5,1 c-1.8,0.9-2.7,2.9-2.4,4.9c0.5,1.7,2.1,2.5,3.5,3c5.2,1.9,10.8,2.8,16.4,2.7c1.3,4.2,5.2,6.1,8.8,6.3c3.4,0.2,6.7-0.7,9.6-2.5 c2.9-1.8,5.5-4.6,8.6-5.9c4.4-1.8,9.1-0.3,13.7-0.4c3.3-0.1,6.4-0.9,9.4-2.3C217.8,199.2,220.7,197,223.8,197.4z M465.1,175.2 c-2.1-0.7-4.4-1-6.6-1c-2.3,0-4.7,0.4-6.8-0.4c-1.4-0.6-2.7-1.5-3.9-2.4c-7.3-5-15-4.1-23.2-5.7c-6.4-1.3-14-8-20.4-3.6 c-2.9,1.9-4.3,5.7-7.4,7.2c-6,3-13.7-4.2-19.6-0.9c-2,1.2-3.2,3.3-4.8,5.1c-7.6,8.4-21.7,5.1-31.9,10c-2.8,1.4-5.6,3.9-5.6,7 c4.9-0.9,9.9-0.5,14.6,1.2c2.1,0.9,4.2,1.6,6.3,2.2c5.5,1.2,11.2-1.1,16.8-1.7c8.5-0.9,17,2,25.5,2.2c7.2,0.2,14.4-1.6,21.5-0.2 c2.8,0.5,5.5,1.5,8.3,1.6c11,0.4,19.3-12.3,30.2-11.6c2.3,0.1,4.5,0.9,6.8,0.8c2.3-0.1,4.8-1.3,5.4-3.5 C471.2,178.6,468,176.1,465.1,175.2z M95.3,121.1c13.3-1,26.7,4.6,39.8,1.7c3.8-0.8,7.5-2.3,11.3-2.9c4.7-0.6,9.4,0.2,14.1,0.7 c10.9,1,21.9-0.3,32.4-3.7c0.9-2.2-1.3-4.4-3.2-5.2c-8.6-3.4-19.6,0.9-26.1-7c-1.6-2-2.8-4.6-4.6-6.4c-3.9-4-9.6-3.1-14.6-2.5 c-5,0.6-11.1,0-13.7-5.3c-0.7-1.4-1.1-3-1.8-4.3c-2.5-4.3-8-3.9-11.4-0.8c-3.4,3.1-5.4,7.9-7.8,12.3c-2.4,4.4-5.6,8.6-9.8,9.1 c-4.4,0.5-8.4-3.1-12.8-3.9c-7.9-1.3-14.5,6.7-20.2,13.6c-4.4,5.3-9.3,9.6-15.5,10.8c-3.3,0.6-6.7,0-9.9,1.2 C55.3,139.8,80.6,122.3,95.3,121.1z M373,329.6c-8.5-3.4-19.8-0.6-26-7.5c-1.6-1.7-2.6-3.9-4.3-5.5c-3.7-3.5-9.5-3.2-14.6-3 s-11.2-0.7-13.5-5.3c-0.6-1.2-0.9-2.5-1.6-3.6c-2.2-3.7-7.8-3.7-11.5-1.4s-5.9,6.1-8.6,9.5c-2.6,3.4-6.2,6.6-10.5,6.7 c-4.5,0.1-8.3-3.1-12.7-4c-7.9-1.6-15.1,4.4-21.2,9.6c-4.7,4-10,7.1-16.3,7.7c-3.4,0.3-6.8-0.5-10.1,0.3 c13.2,10.1,39.7-2.3,54.7-2.2c13.5,0.1,26.7,5.6,40.2,4.2c3.9-0.4,7.7-1.4,11.6-1.5c4.8-0.2,9.5,0.8,14.3,1.5 c10.9,1.6,22.1,1.3,32.9-0.8C376.9,332.2,374.9,330.3,373,329.6z M495.1,78.9c-3.1-1.6-6.5-1.4-9.8-2.1c-10.9-2-16.4-13.3-25.6-19.3 c-9.4-6.1-20.6-8.1-30.9-5c-6.5,2-12.8,5.8-19.5,6.2c-8.2,0.6-17-3.9-24.5,0.3c-2.6,1.4-4.7,3.7-7.1,5.5c-7.5,5.7-16.9,6.1-25.8,6.3 l-35.8,0.8c-2,0-4.7,1.7-3.7,3.8c6.7,6.2,14.5,12.7,22.8,11.3c3.4-0.6,6.6-2.4,10-2.8c6.1-0.6,11.7,3.6,17.3,6.4 c5.7,2.9,12,4.4,18.3,4.6c9,0.1,18.4-2.7,26.9,0.8c6.1,2.5,11.2,7.9,16.9,11.5c5.6,3.6,12.2,5.3,18.8,4.9 c7.1-0.4,14.8-4.3,17.3-12.4c10.9,0.2,21.8-1.7,32.1-5.3c2.8-1,6-2.6,6.9-6C500.8,84.6,498.2,80.5,495.1,78.9z M130.2,309.6 c-2.1-0.7-4.4-1-6.6-1c-2.3,0-4.7,0.4-6.8-0.4c-1.4-0.6-2.7-1.5-3.9-2.4c-7.3-5-15-4.1-23.2-5.7c-6.4-1.3-14-8-20.4-3.6 c-2.9,1.9-4.3,5.7-7.4,7.2c-6,3-13.7-4.2-19.6-0.9c-2,1.2-3.2,3.3-4.8,5.1c-7.6,8.4-21.7,5.1-31.9,10c-2.8,1.4-5.6,3.9-5.6,7 c4.9-0.9,9.9-0.5,14.6,1.2c2.1,0.9,4.2,1.6,6.3,2.2c5.5,1.2,11.2-1.1,16.8-1.7c8.5-0.9,17,2,25.5,2.2c7.2,0.2,14.4-1.6,21.5-0.3 c2.8,0.5,5.5,1.5,8.3,1.6c11,0.4,19.3-12.3,30.2-11.6c2.3,0.1,4.5,0.9,6.8,0.8c2.3-0.1,4.8-1.3,5.4-3.5 C136.2,312.9,133.1,310.5,130.2,309.6z" fill="#f2f2f2"/></g></svg>