<?xml version="1.0" encoding="UTF-8"?><svg xmlns="http://www.w3.org/2000/svg" xmlns:xlink="http://www.w3.org/1999/xlink" height="1586.1" preserveAspectRatio="xMidYMid meet" version="1.0" viewBox="-14.7 -13.9 2687.9 1586.1" width="2687.9" zoomAndPan="magnify"><defs><clipPath id="a"><path d="M 10 1435 L 2673.148438 1435 L 2673.148438 1572.230469 L 10 1572.230469 Z M 10 1435"/></clipPath></defs><g><g><path d="M 1357.71875 65.648438 C 1349.972656 120.785156 1329.054688 160.570312 1299.304688 190.03125 C 1388.863281 123.433594 1348.199219 188.527344 1278.011719 283.496094 C 1374.210938 237.386719 1303.984375 306.796875 1241.585938 370.773438 C 1338.496094 336.628906 1325.191406 371.929688 1238.835938 453.238281 C 1308.605469 423.3125 1260.636719 472.570312 1221.648438 515.777344 C 1238.609375 613.585938 1255.554688 711.398438 1272.511719 809.210938 C 1305.039062 856.398438 1337.566406 903.589844 1370.09375 950.777344 C 1420.035156 936.574219 1469.960938 922.375 1519.902344 908.171875 C 1551.4375 809.214844 1566.726562 710.253906 1563.890625 611.296875 C 1563.652344 599.15625 1563.425781 587.011719 1563.199219 574.871094 C 1514.742188 577.710938 1483.605469 561.503906 1471.792969 524.019531 C 1491.050781 519.4375 1510.285156 514.855469 1529.53125 510.273438 C 1487.914062 491.003906 1446.722656 471.214844 1429.199219 422.3125 C 1452.109375 420.480469 1475.007812 418.648438 1497.917969 416.816406 C 1457.195312 390.503906 1429.363281 358.824219 1410.632812 323.355469 C 1432.398438 327.25 1454.167969 331.144531 1475.925781 335.035156 C 1378.09375 266.964844 1379.738281 249.175781 1444.992188 263.574219 C 1385.835938 202.875 1344.574219 154.480469 1408.574219 178.359375 C 1379.320312 150.851562 1366.78125 109.6875 1357.71875 65.648438 Z M 1900.609375 65.648438 C 1894.421875 117.535156 1878.390625 158.070312 1848.375 182.476562 C 1924.4375 126.785156 1873.632812 237.425781 1805.765625 260.8125 C 1877.234375 243.976562 1887.089844 248.332031 1796.148438 332.285156 C 1936.703125 245.808594 1862.609375 332.035156 1767.289062 435.367188 C 1856.898438 399.101562 1882.519531 406.070312 1763.15625 510.960938 C 1864.453125 487.804688 1855.667969 514.632812 1752.160156 605.796875 C 1849.265625 570.078125 1849.328125 591.117188 1752.160156 669.019531 C 1805.476562 667.308594 1801.007812 685.390625 1720.5625 729.488281 C 1726.964844 878.386719 1733.378906 1027.28125 1739.78125 1176.179688 C 1837.839844 1198.171875 1935.875 1220.160156 2033.921875 1242.148438 C 2037.847656 1048.351562 2041.566406 864.863281 2045.496094 671.074219 C 2016.808594 662.355469 2016.320312 642.453125 2046.285156 631.90625 C 1963.230469 574.136719 1976.308594 560.929688 2043.535156 572.808594 C 1943.28125 496.085938 1956.398438 473.136719 2033.921875 480.71875 C 1937.996094 416.261719 1950.6875 409.097656 2021.542969 432.613281 C 1892.914062 321.503906 1909.261719 325.574219 2011.925781 326.785156 C 1928.769531 264.839844 1935.195312 247.152344 1996.8125 256.695312 C 1923.03125 200.777344 1875.96875 157.117188 1958.320312 172.847656 C 1918.714844 143.597656 1899.882812 107.730469 1900.609375 65.648438" fill="#36461c" fill-rule="evenodd"/></g><g><path d="M 2107.46875 286.925781 C 2103.578125 332.535156 2094.195312 372.625 2062.792969 390.695312 C 2103.289062 378.402344 2121.679688 386.089844 2048.367188 476.597656 C 2103.304688 456.539062 2088.246094 490.25 2016.753906 567.3125 C 2161.800781 473.609375 2055.210938 592.054688 2000.257812 666.957031 C 2094.90625 587.738281 2070.570312 632.316406 1983.761719 741.863281 C 2112.582031 657.574219 2069.722656 718.148438 1963.828125 831.890625 C 2085.449219 762.675781 2054.105469 815.777344 1948.710938 928.097656 C 2045.523438 879.375 2050.519531 895.269531 1949.40625 985.824219 C 2005.570312 961.289062 2019.507812 968.40625 1936.34375 1048.359375 C 1966.445312 1034.21875 1977.269531 1036.359375 1948.710938 1071.71875 C 1923.058594 1205.039062 1897.40625 1338.359375 1871.753906 1471.679688 C 2054.558594 1461.140625 2189.402344 1453.371094 2372.195312 1442.828125 C 2408.394531 1440.988281 2437.558594 1422.660156 2446.261719 1413.949219 C 2380.1875 1416.917969 2343.46875 1371.300781 2303.320312 1333.539062 C 2364.914062 1345.910156 2418.113281 1356.230469 2466.875 1335.609375 C 2358.40625 1313.058594 2323.539062 1263.589844 2290.941406 1213.289062 C 2327.277344 1237.070312 2371 1249.050781 2425.648438 1243.519531 C 2372.363281 1232.878906 2330.9375 1206.058594 2297.824219 1167.929688 C 2335.328125 1177.960938 2372.089844 1179.429688 2407.777344 1169.296875 C 2349.296875 1144.410156 2309.128906 1108.070312 2279.953125 1064.847656 C 2323.8125 1063.527344 2352.960938 1059.5 2396.09375 1035.300781 C 2325.1875 1035.148438 2271.960938 999.125 2235.972656 960.390625 C 2274.804688 969.089844 2321.527344 975.523438 2354.851562 960.390625 C 2267.195312 922.078125 2215.042969 858.976562 2193.371094 796.832031 C 2219.71875 819.648438 2250.789062 838.671875 2304.695312 839.441406 C 2245.777344 799.726562 2204.644531 753.175781 2193.371094 695.128906 C 2214.4375 709.332031 2239.632812 720.78125 2262.078125 728.113281 C 2166.898438 635.925781 2139.628906 577.921875 2249.714844 619.535156 C 2158.53125 531.265625 2155.140625 508.054688 2216.039062 520.574219 C 2136.78125 444.359375 2107.679688 397.941406 2176.875 429.863281 C 2141.703125 382.21875 2122.449219 334.574219 2107.46875 286.925781" fill="#425b23" fill-rule="evenodd"/></g><g><path d="M 1629.871094 216.84375 C 1622.644531 265.269531 1597.929688 301.03125 1574.203125 321.980469 C 1659.472656 275.757812 1601.628906 347.527344 1529.542969 421.632812 C 1579.316406 415.9375 1600.71875 398.640625 1606.933594 404.730469 C 1589.511719 431.0625 1565.292969 467.984375 1497.917969 527.464844 C 1526.191406 519.191406 1551.875 511.945312 1575.574219 505.472656 C 1549.601562 553.519531 1511.953125 580.882812 1476.617188 608.554688 C 1502.5 599.851562 1528.382812 591.148438 1554.265625 582.441406 C 1522.429688 617.492188 1490.589844 652.539062 1458.75 687.585938 C 1487.375 677.738281 1516.023438 667.886719 1544.648438 658.035156 C 1513.730469 694.917969 1482.8125 731.796875 1451.882812 768.675781 C 1484.867188 763.410156 1517.855469 758.140625 1550.839844 752.871094 C 1519.460938 783.339844 1488.070312 813.804688 1456.691406 844.269531 C 1471.347656 844.957031 1486.003906 845.644531 1500.667969 846.332031 C 1473.179688 873.820312 1445.691406 901.308594 1418.210938 928.796875 C 1424.15625 1012.640625 1430.113281 1096.46875 1436.082031 1180.3125 C 1445.242188 1232.539062 1454.410156 1284.769531 1463.570312 1336.992188 C 1517.628906 1359.902344 1571.6875 1382.8125 1625.746094 1405.71875 C 1694.46875 1395.179688 1763.183594 1384.640625 1831.90625 1374.097656 C 1831.457031 1298.511719 1830.996094 1222.921875 1830.535156 1147.332031 C 1818.625 1033.710938 1806.722656 920.085938 1794.796875 806.46875 C 1769.578125 801.164062 1744.898438 779.25 1734.332031 750.117188 C 1751.328125 746.4375 1774.367188 746.707031 1788.617188 743.933594 C 1759.453125 727.894531 1732.996094 707.785156 1718.519531 669.714844 C 1735.851562 669.613281 1753.179688 669.515625 1770.511719 669.417969 C 1731.367188 644.898438 1701.503906 614.53125 1697.222656 568.007812 C 1716.6875 574.421875 1736.15625 580.835938 1755.632812 587.25 C 1660.371094 504.125 1643.59375 462.144531 1737.074219 477.980469 C 1649.988281 403.191406 1637.480469 375.703125 1700.652344 396.203125 C 1640.714844 337.199219 1624.070312 305.167969 1675.914062 315.800781 C 1648.222656 291.792969 1637.367188 255.539062 1629.871094 216.84375" fill="#618a2c" fill-rule="evenodd"/></g><g><path d="M 436.894531 465.601562 C 459.800781 426.210938 476.34375 380.429688 519.363281 361.148438 C 497.84375 334.710938 500.558594 315.199219 530.351562 303.421875 C 520.972656 260.949219 541.109375 249.230469 575.710938 252.570312 C 566.183594 216.289062 570.582031 183.011719 586.703125 152.230469 C 595.933594 118.691406 600.050781 80.691406 652.679688 84.890625 C 679.613281 78.96875 685.207031 53.988281 702.15625 24.410156 C 724.082031 -13.851562 761.835938 -6.570312 788.746094 42.28125 C 851.875 44.46875 843.230469 92.320312 843.722656 134.371094 C 874.171875 160.910156 882.933594 193.03125 849.222656 236.070312 C 881.910156 244.691406 900.839844 264.558594 893.203125 306.171875 C 910.859375 310.078125 914.953125 325.621094 906.949219 351.519531 C 930.65625 344.929688 952.066406 344.101562 953.679688 392.761719 C 986.664062 454.609375 1019.648438 516.460938 1052.640625 578.304688 C 1005.449219 633.28125 958.261719 688.261719 911.070312 743.238281 C 808.449219 714.835938 705.824219 686.425781 603.199219 658.023438 C 547.765625 593.882812 492.328125 529.738281 436.894531 465.601562" fill="#4e7d2d" fill-rule="evenodd"/></g><g><path d="M 973.613281 1167.238281 C 973.613281 1167.238281 1042.328125 1216.71875 1051.949219 1272.390625 C 1061.578125 1328.050781 1069.128906 1488.167969 1069.128906 1488.167969 L 1116.550781 1495.050781 C 1116.550781 1495.050781 1086.320312 1271.699219 1095.25 1243.519531 C 1104.179688 1215.351562 1133.730469 1159 1133.730469 1159 L 1122.738281 1145.25 C 1122.738281 1145.25 1080.128906 1219.46875 1077.378906 1216.71875 C 1074.628906 1213.96875 1056.078125 1121.199219 1056.078125 1121.199219 L 1030.648438 1094.398438 C 1030.648438 1094.398438 1056.078125 1201.609375 1050.578125 1209.171875 C 1045.078125 1216.71875 995.605469 1159.679688 976.363281 1152.808594 C 957.117188 1145.941406 973.613281 1167.238281 973.613281 1167.238281" fill="#3e3120" fill-rule="evenodd"/></g><g><path d="M 1069.480469 314.449219 C 1040.609375 244.351562 1108.738281 238.679688 1143.691406 240.230469 C 1195.609375 242.53125 1185.929688 346.488281 1179.429688 344.691406 C 1215.078125 344 1204.808594 377.378906 1183.550781 418.910156 C 1217.171875 424.019531 1229.199219 448.160156 1231.660156 480.761719 C 1258.488281 478.988281 1281.851562 485.578125 1286.628906 537.109375 C 1331.808594 584.695312 1328.839844 628.101562 1289.71875 668.363281 C 1305.148438 694.113281 1298.601562 714.800781 1290.058594 735.019531 C 1309 748.902344 1330.121094 760.183594 1320.941406 807.785156 C 1330.011719 890.507812 1339.078125 973.234375 1348.140625 1055.960938 C 1311.421875 1080.96875 1274.699219 1105.988281 1237.96875 1131.011719 C 1220.578125 1144.878906 1208.359375 1160.738281 1214.820312 1183.78125 C 1145.019531 1231.609375 1136.148438 1209.808594 1130.980469 1183.78125 C 1107.96875 1188.480469 1092.398438 1179.320312 1084.25 1156.289062 C 1057.75 1151.589844 1047.03125 1137.429688 1037.109375 1122.789062 C 1015.578125 1140.679688 987.585938 1142.070312 949.558594 1117.808594 C 930.316406 1088.480469 911.074219 1059.160156 891.832031 1029.839844 C 900.996094 949.664062 910.160156 869.492188 919.324219 789.316406 C 917.949219 731.589844 916.574219 673.863281 915.199219 616.136719 C 914.359375 577.898438 930.25 559.988281 955.058594 552.910156 C 931.058594 549.308594 927.734375 535.910156 938.566406 515.800781 C 907.855469 503.300781 906.515625 480.671875 928.945312 449.828125 C 926.386719 422.769531 934.523438 398.339844 960.371094 405.300781 C 979.460938 410.449219 994.304688 411.011719 997.664062 389.359375 C 1005.171875 341 1020.121094 312.050781 1069.480469 314.449219" fill="#98d320" fill-rule="evenodd"/></g><g><path d="M 1385.21875 585.183594 C 1374.417969 636.890625 1350.203125 672.75 1319.238281 700.632812 C 1335.730469 694.21875 1352.222656 687.808594 1368.714844 681.394531 C 1359.867188 710.550781 1344.140625 732.871094 1326.113281 752.863281 C 1335.269531 753.09375 1344.429688 753.320312 1353.609375 753.550781 C 1336.5625 794.308594 1308.347656 825.28125 1276.632812 853.199219 C 1295.640625 849.300781 1314.664062 845.410156 1333.671875 841.511719 C 1321.785156 885.3125 1296.121094 916.871094 1267.691406 945.96875 C 1286.941406 939.554688 1306.183594 933.140625 1325.425781 926.730469 C 1293.976562 991.636719 1251.742188 1035 1203.792969 1066.921875 C 1238.644531 1065.042969 1274.296875 1054.601562 1310.992188 1032.5625 C 1289.34375 1072.09375 1257.976562 1104.351562 1221.648438 1132.890625 C 1247.546875 1129.910156 1273.425781 1126.933594 1299.3125 1123.960938 C 1272.429688 1185.832031 1233.671875 1231.402344 1192.101562 1273.082031 C 1228.851562 1273.640625 1264.417969 1260.160156 1299.3125 1238.722656 C 1280.253906 1298.542969 1241.25 1344.550781 1198.296875 1387.839844 C 1231.269531 1374.101562 1264.265625 1360.359375 1297.238281 1346.609375 C 1284.910156 1388.75 1250.285156 1416.960938 1208.59375 1440.761719 C 1241.128906 1437.78125 1273.648438 1434.800781 1306.183594 1431.832031 C 1294.039062 1451.53125 1281.90625 1471.21875 1269.761719 1490.929688 C 1403.773438 1486.570312 1537.78125 1482.21875 1671.792969 1477.871094 C 1632.398438 1410.519531 1592.984375 1343.179688 1553.597656 1275.832031 C 1532.933594 1260.371094 1512.839844 1243.210938 1495.863281 1216.730469 C 1513.730469 1214.441406 1531.597656 1212.140625 1549.464844 1209.851562 C 1520.296875 1188.011719 1497.074219 1157.960938 1475.238281 1126.019531 C 1499.988281 1126.933594 1524.726562 1127.851562 1549.464844 1128.761719 C 1509.320312 1110.261719 1478 1076.421875 1460.820312 1043.210938 C 1481.8125 1043.78125 1512.082031 1048.8125 1531.25 1041.140625 C 1497.804688 1021.074219 1468.820312 992.628906 1451.886719 956.964844 C 1472.953125 958.910156 1494.714844 962.574219 1514.410156 959.367188 C 1475.976562 936.234375 1442.222656 897.175781 1428.511719 862.125 C 1451.648438 864.875 1474.789062 867.628906 1497.925781 870.375 C 1460.328125 850.21875 1435.515625 818.558594 1413.394531 784.472656 C 1434.757812 794.136719 1456.851562 798.628906 1480.050781 795.46875 C 1445.105469 763.859375 1420.386719 728.589844 1398.277344 692.386719 C 1410.871094 693.535156 1426.910156 699.144531 1439.507812 700.292969 C 1407.035156 672.144531 1388.378906 629.828125 1385.21875 585.183594" fill="#425b23" fill-rule="evenodd"/></g><g><path d="M 1819.539062 662.136719 C 1831.65625 696.125 1844.820312 729.496094 1877.261719 751.476562 C 1863.984375 751.703125 1850.695312 751.933594 1837.40625 752.164062 C 1855.96875 790.472656 1879.066406 823.832031 1917.8125 840.125 C 1898.34375 837.148438 1878.863281 834.167969 1859.398438 831.191406 C 1880.175781 871.175781 1906.882812 899.335938 1937.734375 919.15625 C 1917.460938 912.40625 1897.097656 906.382812 1875.890625 908.847656 C 1896.039062 958.675781 1925 987.898438 1953.535156 1018.121094 C 1932.011719 1009.179688 1910.476562 1000.25 1888.9375 991.316406 C 1913.125 1031.359375 1943.789062 1060.558594 1976.21875 1086.839844 C 1953.308594 1084.320312 1930.410156 1081.800781 1907.5 1079.28125 C 1925.367188 1109.339844 1955.539062 1132.859375 1987.226562 1155.558594 C 1959.273438 1150.289062 1931.316406 1145.019531 1903.375 1139.75 C 1936.664062 1183.558594 1971.25 1226.140625 2020.199219 1255.199219 C 1989.734375 1249.699219 1959.273438 1244.210938 1928.796875 1238.710938 C 1962.488281 1284.847656 2005.09375 1318.101562 2055.25 1340.417969 C 2023.867188 1335.839844 1992.484375 1331.261719 1961.101562 1326.667969 C 1977.023438 1369.199219 2006.820312 1401.890625 2051.128906 1424.257812 C 2054.214844 1430.089844 1994.792969 1404.511719 1993.402344 1407.078125 C 1997.199219 1419.460938 2027.941406 1443.890625 2040.824219 1451.75 C 2014.007812 1452.648438 1759.976562 1476.03125 1619.5625 1488.167969 C 1626.433594 1415.78125 1633.304688 1343.398438 1640.179688 1271.007812 C 1645.675781 1258.640625 1651.1875 1246.269531 1656.671875 1233.898438 C 1663.554688 1231.609375 1670.425781 1229.320312 1677.285156 1227.03125 C 1697.285156 1216.199219 1714.332031 1198.460938 1728.832031 1174.800781 C 1714.632812 1175.71875 1700.4375 1176.628906 1686.226562 1177.550781 C 1712.792969 1156.410156 1737.40625 1134.140625 1744.628906 1101.949219 C 1726.535156 1105.847656 1702.605469 1111.460938 1684.5 1115.351562 C 1716.6875 1084.578125 1747.265625 1046.820312 1763.882812 1005.058594 C 1742.574219 1020.058594 1708.265625 1030.5 1685.53125 1030.480469 C 1698.015625 1023.050781 1784.4375 923.070312 1772.8125 921.21875 C 1761.1875 919.363281 1735.527344 943.410156 1710.964844 947.332031 C 1738.667969 918.253906 1764.816406 885.722656 1785.179688 840.125 C 1770.289062 842.644531 1755.398438 845.164062 1740.507812 847.6875 C 1768.4375 825.769531 1792.796875 798.28125 1807.863281 756.285156 C 1790.679688 760.410156 1773.503906 764.53125 1756.320312 768.65625 C 1779.542969 744.628906 1801.824219 715.550781 1819.539062 662.136719" fill="#517229" fill-rule="evenodd"/></g><g><path d="M 1609.25 1029.101562 C 1620.113281 1056.109375 1634.113281 1079.53125 1658.730469 1090.949219 C 1644.921875 1095.140625 1632.691406 1092.960938 1621.613281 1086.140625 C 1636.523438 1119.640625 1649.972656 1153.992188 1690.101562 1172.539062 C 1673.910156 1172.832031 1657.738281 1173.128906 1641.554688 1173.421875 C 1657.003906 1208.109375 1682.234375 1233.550781 1715.074219 1251.761719 C 1693.773438 1249.929688 1672.472656 1248.101562 1651.183594 1246.269531 C 1673.152344 1286.421875 1737.832031 1332.820312 1741.890625 1326.667969 C 1745.941406 1320.519531 1689.152344 1321.589844 1663.535156 1315.671875 C 1667.472656 1319.710938 1708.371094 1360.621094 1751.511719 1376.828125 C 1722.824219 1384.800781 1696.117188 1385.359375 1671.101562 1379.578125 C 1696.914062 1405.640625 1725.6875 1427.75 1759.746094 1442.808594 C 1740.046875 1451.050781 1720.351562 1459.300781 1700.652344 1467.550781 C 1629.871094 1474.878906 1559.09375 1482.210938 1488.292969 1489.539062 C 1506.429688 1475.171875 1525.625 1462.941406 1537.089844 1435.25 C 1518.542969 1435.710938 1499.984375 1436.160156 1481.425781 1436.621094 C 1516.882812 1419.300781 1547.238281 1395.539062 1565.269531 1356.21875 C 1540.847656 1365.53125 1515.152344 1371.179688 1488.984375 1375.460938 C 1523.285156 1346.289062 1556.503906 1316.070312 1576.949219 1273.070312 C 1557.507812 1283.019531 1534.542969 1286.710938 1506.863281 1282 C 1543.980469 1256.460938 1578.363281 1226.96875 1598.941406 1177.539062 C 1579.941406 1187.140625 1561.359375 1191.089844 1543.277344 1187.851562 C 1568.3125 1159.902344 1594.945312 1133.820312 1603.066406 1086.140625 C 1589.894531 1100.789062 1575.007812 1105.640625 1559.09375 1104.699219 C 1580.664062 1084.761719 1598.671875 1060.949219 1609.25 1029.101562" fill="#38491d" fill-rule="evenodd"/></g><g><path d="M 164.753906 1505.339844 C 108 1502.128906 91.832031 1403.398438 145.511719 1396.761719 C 89.734375 1357.109375 162.605469 1294.019531 201.175781 1347.28125 C 204.015625 1317.179688 252.167969 1310.71875 256.839844 1343.148438 C 275.078125 1330.441406 283.96875 1338.46875 285.703125 1362.398438 C 322.597656 1357.261719 360.832031 1349.808594 353.050781 1422.871094 C 403.816406 1437.648438 396.417969 1474.441406 379.160156 1514.960938 C 307.691406 1511.75 236.222656 1508.539062 164.753906 1505.339844" fill="#67a12f" fill-rule="evenodd"/></g><g><path d="M 575.710938 1390.589844 L 611.445312 1390.589844 L 611.445312 1220.160156 L 575.710938 1220.160156 L 575.710938 1390.589844" fill="#3e3120" fill-rule="evenodd"/></g><g><path d="M 476.746094 1509.460938 C 451.453125 1508.988281 442.480469 1498.480469 441.011719 1483.351562 C 388.222656 1478.449219 390.554688 1452.121094 403.902344 1421.5 C 371.746094 1388.398438 374.667969 1359.308594 406.652344 1333.53125 C 415.351562 1268.589844 541.367188 1262.859375 512.484375 1365.140625 C 541.472656 1333.128906 557.710938 1338.519531 559.210938 1387.140625 C 574.539062 1339.121094 658.898438 1354.019531 634.808594 1414.621094 C 666.5625 1416.179688 671.78125 1432.769531 648.550781 1465.480469 C 680.25 1470.589844 678.964844 1503.660156 651.296875 1509.460938 C 593.113281 1509.460938 534.933594 1509.460938 476.746094 1509.460938" fill="#98d320" fill-rule="evenodd"/></g><g><path d="M 744.761719 1516.328125 C 726.144531 1473.089844 718.8125 1435.808594 762.625 1425.621094 C 716.351562 1381.960938 801.390625 1343.628906 820.351562 1385.761719 C 862.101562 1373.730469 890.390625 1388.628906 908.316406 1424.25 C 958.066406 1428.910156 964.910156 1461.25 957.796875 1502.589844 C 886.785156 1507.167969 815.773438 1511.75 744.761719 1516.328125" fill="#67a12f" fill-rule="evenodd"/></g><g><path d="M 197.0625 1112.269531 C 197.0625 1112.269531 286.398438 1220.851562 289.144531 1270.328125 C 291.894531 1319.808594 296.25 1511.238281 296.25 1511.238281 L 331.664062 1512.820312 C 331.664062 1512.820312 309.761719 1271.710938 349.621094 1197.488281 C 389.476562 1123.269531 382.605469 1121.890625 382.605469 1121.890625 C 378.710938 1120.519531 374.992188 1122.738281 370.921875 1117.769531 C 366.851562 1112.800781 317.949219 1209.558594 318.003906 1228.410156 C 318.058594 1247.261719 308.386719 1105.398438 308.386719 1105.398438 C 302.199219 1108.609375 296.015625 1111.820312 289.828125 1115.019531 C 287.382812 1146.410156 289.988281 1181.679688 299.449219 1222.230469 C 271.945312 1168.941406 240.046875 1137.609375 208.738281 1103.339844 C 204.847656 1106.320312 200.953125 1109.289062 197.0625 1112.269531" fill="#3e3120" fill-rule="evenodd"/></g><g><path d="M 783.25 1275.828125 C 783.25 1275.828125 816.664062 1307.238281 823.796875 1345.230469 C 830.925781 1383.230469 834.460938 1510.550781 834.460938 1510.550781 L 866.292969 1508.488281 C 866.292969 1508.488281 863.652344 1361.039062 874.648438 1332.859375 C 885.644531 1304.691406 911.757812 1252.460938 911.757812 1252.460938 L 904.886719 1244.898438 C 904.886719 1244.898438 866.40625 1328.738281 861.59375 1320.5 C 856.78125 1312.25 856.097656 1246.28125 856.097656 1246.28125 L 834.792969 1247.648438 C 834.792969 1247.648438 842.351562 1317.058594 840.289062 1324.621094 C 838.226562 1332.179688 791.496094 1265.519531 791.496094 1265.519531 L 783.25 1275.828125" fill="#5c492b" fill-rule="evenodd"/></g><g><path d="M 275.398438 1139.078125 C 269.375 1164.921875 252.382812 1164.511719 225.234375 1139.769531 C 218.539062 1144.96875 211.5625 1148.460938 201.179688 1131.519531 C 168.925781 1131.921875 161.511719 1114.570312 155.140625 1096.480469 C 101.382812 1129.429688 77.8125 1078.949219 55.492188 1025.011719 C 29.867188 998.96875 32.105469 976.597656 76.109375 959.722656 C 42.285156 929.414062 46.945312 900.238281 75.421875 871.757812 C 36.523438 886.136719 40.613281 847.972656 51.371094 801.660156 C -9.394531 756.496094 -0.785156 726.746094 21.125 699.953125 C -14.710938 662.976562 -3.050781 632.480469 41.742188 606.492188 C 43.089844 569.671875 57.574219 561.308594 80.910156 572.128906 C 79.882812 552.109375 91.097656 546.789062 108.398438 548.769531 C 98.039062 524.660156 100.664062 501.859375 126.949219 481.421875 C 109.050781 462.378906 110.261719 445.25 129.015625 429.878906 C 71.621094 419.898438 111.265625 312.71875 157.875 341.230469 C 159.445312 318.851562 170.507812 311.140625 192.238281 319.921875 C 168.542969 289.171875 186.578125 271.871094 219.726562 259.449219 C 163.785156 250.441406 200.054688 160.101562 237.59375 163.238281 C 218.355469 122.351562 266.9375 115.410156 291.195312 113.761719 C 337.554688 110.621094 392.5625 156.140625 357.167969 213.398438 C 387.613281 212.289062 398.886719 237.660156 390.84375 289.691406 C 421.351562 293.808594 435.015625 313.730469 436.199219 345.351562 C 480.566406 330.988281 490.363281 364.488281 487.054688 416.128906 C 514.351562 431.320312 525.773438 451.328125 492.550781 484.851562 C 501.714844 532.039062 510.875 579.234375 520.035156 626.421875 C 484.304688 792.496094 448.570312 958.574219 412.835938 1124.648438 C 389.53125 1157.550781 372.222656 1147.21875 357.167969 1120.53125 C 348.976562 1142.441406 334.664062 1143.519531 317.308594 1134.269531 C 305.390625 1156.378906 290.988281 1153.628906 275.398438 1139.078125" fill="#67a12f" fill-rule="evenodd"/></g><g><path d="M 475.390625 1166.609375 C 459.707031 1161.960938 460.648438 1144.378906 461.648438 1126.75 C 411.796875 1145.351562 400.605469 1130.628906 403.925781 1103.378906 C 354.007812 1084.960938 359.359375 1058.171875 370.25 1030.539062 C 337.242188 982.230469 351.945312 964.996094 397.738281 968 C 389.363281 933.496094 400.386719 911.558594 423.164062 897.21875 C 370.132812 859.765625 389.390625 829.03125 415.605469 798.945312 C 393.957031 769.195312 405.183594 748.988281 440.34375 735.722656 C 429.320312 707.507812 441.734375 697.324219 454.777344 687.617188 C 375.53125 618.761719 419.433594 561.300781 461.648438 566.660156 C 432.730469 480.539062 522.992188 454.769531 528.308594 507.558594 C 529.851562 522.871094 569.828125 510.910156 566.796875 487.640625 C 558.550781 424.421875 641.09375 431.988281 637.578125 480.070312 C 673.0625 470.089844 704.722656 492.648438 691.179688 546.050781 C 725.496094 556.171875 744.367188 580.828125 747.53125 620.265625 C 777.144531 631.371094 786.070312 667.746094 798.386719 699.980469 C 773.1875 855.289062 747.984375 1010.601562 722.785156 1165.910156 C 711.183594 1206.910156 693.160156 1214.71875 670.558594 1198.898438 C 668.863281 1224.46875 658.511719 1240.21875 629.324219 1234.640625 C 617.5625 1250.140625 608.21875 1269.578125 575.714844 1251.128906 C 553.3125 1263.5 533.519531 1267.191406 522.117188 1242.878906 C 449.972656 1238.261719 458.039062 1204.230469 475.390625 1166.609375" fill="#98d320" fill-rule="evenodd"/></g><g><path d="M 746.152344 1170.039062 C 720.292969 1170.871094 703.75 1158.671875 700.796875 1127.429688 C 659.800781 1110.859375 649.703125 1081.699219 658.1875 1044.960938 C 649.496094 1011.320312 652.660156 984.6875 684.300781 974.871094 C 685.066406 950.457031 690.867188 934.226562 706.292969 933.636719 C 701.753906 904.15625 705.335938 881.105469 722.785156 869.039062 C 704.828125 836.785156 702.261719 803.253906 728.285156 767.328125 C 726.996094 737.257812 736.902344 719.984375 761.269531 719.226562 C 753.945312 694.34375 756.46875 674.011719 772.960938 660.125 C 774.710938 641.808594 779.636719 625.726562 799.753906 620.265625 C 819.914062 579.304688 840.070312 584.207031 860.230469 603.773438 C 904.550781 631.105469 914.164062 617.269531 933.074219 632.636719 C 976.035156 667.550781 944.066406 697.695312 953.6875 727.472656 C 999.160156 743.8125 988.144531 779.320312 956.441406 825.054688 C 983.980469 830.113281 1010.058594 836.480469 983.925781 889.652344 C 1043.429688 866.808594 1042.621094 1019.449219 1007.289062 1013.351562 C 1014.519531 1061.738281 1000.53125 1092.328125 950.941406 1093.070312 C 1006.96875 1123.070312 1003.488281 1158.960938 972.929688 1197.53125 C 983.390625 1242.660156 967.519531 1256.859375 935.824219 1252.5 C 929.304688 1280.449219 914.269531 1278.269531 895.839844 1264.050781 C 888.109375 1270.238281 879.632812 1272.898438 869.15625 1266.25 C 857.800781 1286.878906 838.84375 1281.648438 818.304688 1271.058594 C 771.890625 1308.101562 763.152344 1284.691406 756.453125 1258 C 719.855469 1232.929688 711.28125 1204.28125 746.152344 1170.039062" fill="#a7da40" fill-rule="evenodd"/></g><g><path d="M 45.910156 1524.308594 C 45.910156 1524.308594 105.355469 1497 485.722656 1494.082031 C 565.371094 1493.46875 828.042969 1531.039062 879.496094 1478.269531 C 879.496094 1478.269531 994.945312 1458.339844 1078.789062 1466.589844 C 1162.628906 1474.828125 1258.839844 1480.332031 1344.046875 1478.269531 C 1429.269531 1476.210938 1644.921875 1465.761719 1730.191406 1455.179688 C 1815.476562 1444.589844 1941.238281 1447.339844 1991.414062 1441.160156 C 2041.574219 1434.980469 2065.613281 1433.601562 2098.613281 1438.410156 C 2131.59375 1443.21875 2259.417969 1427.410156 2320.582031 1427.410156 C 2381.746094 1427.410156 2407.171875 1439.101562 2497.195312 1435.660156 C 2587.214844 1432.230469 2626.386719 1430.851562 2625.015625 1441.851562 C 2623.632812 1452.839844 2436.03125 1459.710938 2399.613281 1469.339844 C 2363.183594 1478.960938 2231.234375 1463.832031 2192.757812 1479.640625 C 2154.28125 1495.449219 2101.351562 1485.140625 2101.351562 1485.140625 C 2101.351562 1485.140625 1956.351562 1483.769531 1936.421875 1495.449219 C 1916.503906 1507.128906 1886.261719 1495.449219 1871.824219 1507.820312 C 1857.402344 1520.191406 1829.914062 1518.128906 1829.914062 1518.128906 C 1829.914062 1518.128906 1640.925781 1522.25 1592.816406 1529.121094 C 1544.71875 1535.988281 1415.515625 1496.820312 1342.679688 1511.941406 C 1269.828125 1527.058594 1215.539062 1515.378906 1091.839844 1521.558594 C 968.144531 1527.75 869.875 1526.378906 809.398438 1544.929688 C 748.925781 1563.480469 532.449219 1552.488281 532.449219 1552.488281 C 532.449219 1552.488281 416.308594 1540.121094 349.652344 1539.429688 C 282.992188 1538.738281 252.0625 1521.570312 203.273438 1523.628906 C 154.484375 1525.691406 45.910156 1524.308594 45.910156 1524.308594" fill="#a7da40" fill-rule="evenodd"/></g><g><path d="M 187.460938 605.15625 C 183.621094 589.453125 211.078125 625.003906 218.910156 629.011719 C 275.84375 658.136719 272.855469 640.757812 299.964844 611.339844 C 339.765625 568.148438 357.160156 586.820312 346.027344 616.640625 C 325.121094 672.652344 324.507812 648.554688 312.6875 709.476562 C 296.515625 792.800781 282.292969 761.019531 282.292969 870.929688 C 282.292969 895.535156 259.429688 981.808594 251.664062 989.679688 C 234.832031 1006.730469 135.355469 963.707031 169.789062 915.226562 C 233.648438 825.316406 139.90625 855.652344 143.8125 786.578125 C 150.71875 664.511719 131.433594 748.792969 122.664062 707.941406 C 111.238281 654.710938 202.152344 665.214844 187.460938 605.15625 Z M 454.777344 687.617188 C 375.53125 618.761719 419.433594 561.300781 461.648438 566.660156 C 451.585938 536.699219 455.953125 514.039062 466.152344 499.449219 C 474.152344 488 485.75 481.53125 496.777344 480.398438 C 524.714844 449.53125 513.121094 430.640625 487.054688 416.128906 C 443.589844 417.300781 486.730469 454.480469 442.261719 458.421875 C 442.210938 458.429688 441.566406 458.75 440.453125 459.351562 C 428.960938 465.558594 367.488281 501.800781 395.371094 530.640625 C 432.410156 568.949219 358.558594 543.398438 358.558594 636.957031 C 358.558594 819.894531 288.609375 679 304.425781 825.921875 C 306.371094 844.003906 313.695312 1018.46875 307.015625 1023.128906 C 260.429688 1055.660156 254.394531 1006.328125 253.59375 1056.820312 C 253.046875 1091.261719 200.917969 1038.730469 153.570312 1057.710938 C 131.71875 1066.46875 99.347656 1068.679688 71.328125 1060.46875 C 90.152344 1097.660156 113.65625 1121.910156 155.140625 1096.480469 C 161.511719 1114.570312 168.925781 1131.921875 201.179688 1131.519531 C 209.261719 1144.699219 215.277344 1145.511719 220.707031 1142.769531 C 222.253906 1141.988281 223.75 1140.921875 225.234375 1139.769531 C 238.539062 1151.890625 249.402344 1158.171875 257.734375 1158.390625 C 266.402344 1158.609375 272.328125 1152.261719 275.398438 1139.078125 C 280.105469 1143.480469 284.707031 1146.800781 289.164062 1148.679688 C 296.957031 1151.96875 304.308594 1150.871094 311.027344 1143.449219 C 313.191406 1141.058594 315.285156 1138.019531 317.308594 1134.269531 C 334.664062 1143.519531 348.976562 1142.441406 357.167969 1120.53125 C 358.765625 1123.359375 360.390625 1126.019531 362.046875 1128.449219 C 366.660156 1135.238281 371.507812 1140.339844 376.683594 1143.058594 C 386.203125 1148.050781 396.835938 1144.980469 409.1875 1129.519531 C 403.695312 1124.03125 402.53125 1114.808594 403.925781 1103.378906 C 354.007812 1084.960938 359.359375 1058.171875 370.25 1030.539062 C 337.242188 982.230469 351.945312 964.996094 397.738281 968 C 389.363281 933.496094 400.386719 911.558594 423.164062 897.21875 C 370.132812 859.765625 389.390625 829.03125 415.605469 798.945312 C 393.957031 769.195312 405.183594 748.988281 440.34375 735.722656 C 429.320312 707.507812 441.734375 697.324219 454.777344 687.617188" fill="#5c902f" fill-rule="evenodd"/></g><g><path d="M 717.359375 285.960938 C 748.28125 290.421875 773.910156 439.660156 722.011719 401.300781 C 685.457031 374.28125 754.085938 364.589844 650.796875 343.339844 C 628.621094 338.769531 633.054688 339.128906 610.566406 341.800781 C 585.746094 344.75 550.785156 307.300781 528.199219 289.070312 C 526.160156 258.28125 545.378906 249.640625 575.710938 252.570312 C 568.910156 226.679688 569.203125 202.308594 575.792969 179.289062 C 588.847656 196.300781 623.058594 214.011719 662.636719 209.328125 C 711.90625 203.5 631.21875 273.558594 717.359375 285.960938 Z M 852.640625 458.128906 C 873.171875 559.808594 833.066406 515.671875 795.386719 509.261719 C 763.945312 503.898438 799.457031 454.78125 750.265625 452.410156 C 721.777344 451.039062 679.390625 410.921875 660.910156 389.390625 C 620.78125 342.621094 595.28125 454.53125 574.5 403.289062 C 561.222656 370.550781 516.136719 339.269531 514.933594 312.019531 C 500.503906 323.859375 502.441406 340.359375 519.363281 361.148438 C 506.535156 366.898438 496.058594 375 487.070312 384.589844 C 487.878906 393.980469 487.792969 404.609375 487.054688 416.128906 C 513.121094 430.640625 524.714844 449.53125 496.777344 480.398438 C 512.078125 478.828125 526.296875 487.550781 528.308594 507.558594 C 529.851562 522.871094 569.828125 510.910156 566.796875 487.640625 C 558.550781 424.421875 641.09375 431.988281 637.578125 480.070312 C 673.0625 470.089844 704.722656 492.648438 691.179688 546.050781 C 718.976562 554.25 736.636719 571.980469 744.027344 599.382812 C 745.761719 605.8125 746.929688 612.773438 747.53125 620.265625 C 759.871094 624.894531 768.617188 633.910156 775.515625 645.183594 C 778.761719 633.496094 785.378906 624.171875 799.753906 620.265625 C 819.914062 579.304688 840.070312 584.207031 860.230469 603.773438 C 889.574219 621.867188 903.707031 621.917969 915.394531 624.347656 L 915.199219 616.136719 C 914.359375 577.898438 930.25 559.988281 955.058594 552.910156 C 938.773438 550.46875 932.007812 543.511719 932.726562 533.011719 C 933.066406 528.039062 935.085938 522.269531 938.566406 515.800781 C 907.855469 503.300781 906.515625 480.671875 928.945312 449.828125 C 926.386719 422.769531 934.523438 398.339844 960.371094 405.300781 L 953.679688 392.761719 C 952.066406 344.101562 930.65625 344.929688 906.949219 351.519531 C 914.953125 325.621094 910.859375 310.078125 893.203125 306.171875 C 893.878906 302.511719 894.34375 299.011719 894.613281 295.679688 C 837.726562 335.050781 886.523438 342.910156 866.25 390.570312 C 814.070312 403.191406 846.425781 427.320312 852.640625 458.128906" fill="#456c29" fill-rule="evenodd"/></g><g><path d="M 757.628906 700.765625 C 756.203125 684.203125 760.757812 670.398438 772.960938 660.125 C 773.457031 654.898438 774.21875 649.851562 775.515625 645.183594 C 768.617188 633.910156 759.871094 624.894531 747.53125 620.265625 C 746.929688 612.773438 745.761719 605.8125 744.027344 599.382812 C 697.652344 612.730469 681.8125 646.0625 675.742188 678.101562 C 669.667969 710.160156 673.371094 740.933594 666.035156 749.117188 C 644.636719 772.988281 689.5 779.164062 658.554688 843.773438 C 634.851562 893.265625 695.371094 906.773438 625.507812 972.128906 C 613.402344 983.449219 568.316406 1073.140625 608.191406 1093.761719 C 636.332031 1108.320312 590.378906 1117.109375 643.949219 1159.03125 C 676.171875 1184.238281 645.085938 1212.488281 605.214844 1220.160156 C 595.636719 1222.011719 585.550781 1222.660156 575.714844 1221.808594 C 559.011719 1220.351562 543.019531 1214.53125 531.441406 1202.730469 C 510.113281 1181.011719 543.546875 1251.761719 490.324219 1211.449219 C 488.15625 1209.808594 477.164062 1206.019531 463.78125 1201.890625 C 461.503906 1223.550781 473.882812 1239.789062 522.117188 1242.878906 C 533.519531 1267.191406 553.3125 1263.5 575.714844 1251.128906 C 592.773438 1260.808594 603.449219 1260.058594 611.449219 1254.921875 C 618.691406 1250.261719 623.734375 1242 629.324219 1234.640625 C 658.511719 1240.21875 668.863281 1224.46875 670.558594 1198.898438 C 693.160156 1214.71875 711.183594 1206.910156 722.773438 1165.941406 C 710.449219 1160.109375 702.726562 1147.828125 700.796875 1127.429688 C 659.800781 1110.859375 649.703125 1081.699219 658.1875 1044.960938 C 649.496094 1011.320312 652.660156 984.6875 684.300781 974.871094 C 685.066406 950.457031 690.867188 934.226562 706.292969 933.636719 C 701.753906 904.15625 705.335938 881.105469 722.785156 869.039062 C 704.828125 836.785156 702.261719 803.253906 728.285156 767.328125 C 726.996094 737.257812 736.902344 719.984375 761.269531 719.226562 C 759.367188 712.753906 758.125 706.589844 757.628906 700.765625" fill="#87bd27" fill-rule="evenodd"/></g><g><path d="M 1047.320312 834.882812 C 1044.308594 819.117188 1018.121094 742.261719 1018.101562 741.871094 C 1015.589844 653.769531 980.390625 710.78125 979.144531 663.929688 C 979.121094 663.085938 979.109375 662.207031 979.109375 661.292969 C 979.109375 565.5 952.566406 619.789062 955.058594 552.910156 C 930.25 559.988281 914.359375 577.898438 915.199219 616.136719 L 915.394531 624.347656 C 921.359375 625.589844 926.683594 627.445312 933.074219 632.636719 C 959.535156 654.140625 957.570312 673.835938 954.40625 692.75 C 952.433594 704.546875 949.992188 716.035156 953.6875 727.472656 C 999.160156 743.8125 988.144531 779.320312 956.441406 825.054688 C 983.980469 830.113281 1010.058594 836.480469 983.925781 889.652344 C 1043.429688 866.808594 1042.621094 1019.449219 1007.289062 1013.351562 C 1014.519531 1061.738281 1000.53125 1092.328125 950.941406 1093.070312 C 975.457031 1106.199219 988.578125 1120.449219 993.023438 1135.558594 C 1010.289062 1137.878906 1024.761719 1133.050781 1037.109375 1122.789062 C 1043.558594 1132.300781 1050.351562 1141.621094 1061.589844 1148.261719 C 1067.640625 1151.839844 1074.980469 1154.640625 1084.25 1156.289062 C 1088.328125 1167.808594 1094.261719 1175.851562 1102.050781 1180.429688 C 1107.371094 1183.570312 1113.558594 1185.078125 1120.628906 1184.96875 C 1123.890625 1184.921875 1127.351562 1184.519531 1130.980469 1183.78125 C 1136.148438 1209.808594 1145.019531 1231.609375 1214.820312 1183.78125 C 1208.359375 1160.738281 1220.578125 1144.878906 1237.96875 1131.011719 L 1221.660156 1132.890625 C 1244.589844 1114.871094 1265.550781 1095.371094 1283.328125 1073.488281 C 1278.808594 1076.339844 1274.359375 1079.230469 1270.148438 1082.21875 C 1242.609375 1101.808594 1208.429688 1136.75 1181.320312 1118.148438 C 1126.691406 1080.648438 1150.78125 1143.429688 1086.550781 1083.339844 C 1082.601562 1079.640625 1077.148438 943.152344 1081.71875 936.550781 C 1115.941406 887.035156 1050.480469 851.449219 1047.320312 834.882812" fill="#87bd27" fill-rule="evenodd"/></g><g><path d="M 1029.621094 635.046875 C 1040.949219 587.421875 1140.929688 687.984375 1131.308594 730.117188 C 1121.539062 772.953125 1167.640625 875.238281 1127.011719 852.699219 C 1090.179688 832.265625 1063.628906 818.746094 1063.628906 771.996094 C 1063.628906 718.558594 1098.261719 696.917969 1064.339844 680.109375 C 1004.960938 650.6875 1052.230469 660.613281 1029.621094 635.046875 Z M 1211.039062 647.417969 C 1188.671875 651.132812 1146.21875 659.265625 1138.679688 685.054688 C 1148.371094 696.253906 1231.988281 717.378906 1213.78125 768.699219 C 1207.878906 785.332031 1184.269531 747.71875 1185.089844 852.164062 C 1185.351562 884.503906 1253.921875 888.519531 1203.46875 923.851562 C 1178.878906 941.070312 1213.71875 977.988281 1236.808594 960.257812 C 1258.839844 943.335938 1227.710938 868.40625 1247.589844 819.945312 C 1261.171875 786.832031 1237.71875 807.210938 1277.511719 791.554688 C 1302.808594 781.597656 1249.050781 712.503906 1251.421875 687.648438 C 1253.828125 662.375 1234.191406 643.574219 1211.039062 647.417969 Z M 1119.300781 299 C 1076.511719 332.78125 1129.660156 316.890625 1063.691406 351.898438 C 1027.578125 371.058594 1123.578125 423.691406 1048.851562 445.03125 C 1028.140625 450.941406 971.910156 520.300781 1062.28125 517.53125 C 1088.789062 516.71875 1067.46875 576.078125 1062.929688 587.6875 C 1076.710938 611.761719 1139.800781 619.492188 1137.851562 592.929688 C 1136.730469 577.605469 1156.230469 584.398438 1156.230469 560.46875 C 1174.089844 568.390625 1235.449219 632.757812 1224.789062 542.449219 C 1221.910156 518.03125 1174.789062 559.179688 1201.230469 481.070312 C 1211.699219 450.140625 1168.78125 486.648438 1168.78125 420.988281 C 1168.78125 380.359375 1176.5 366.089844 1150.75 335.578125 C 1140.46875 323.398438 1181.699219 299 1119.300781 299" fill="#a6d823" fill-rule="evenodd"/></g><g><path d="M 623.476562 545.371094 C 624.503906 585.304688 711.453125 578.722656 665.5625 636.640625 C 642.679688 665.515625 710.3125 764.746094 620.382812 781.246094 C 588.035156 787.183594 589.527344 680.976562 557.003906 711.148438 C 552.320312 715.492188 569.65625 766.867188 525.902344 746.726562 C 525.507812 746.546875 493.253906 833.53125 449.445312 771.820312 C 413.503906 721.195312 583.417969 725.429688 471.121094 618.730469 C 434.59375 584.023438 501.859375 593.125 512.652344 580.445312 C 538.148438 550.480469 556.273438 627.335938 556.296875 550.351562 C 635.742188 505.480469 655.078125 550.46875 623.476562 545.371094 Z M 526.574219 803.066406 C 534.039062 868.605469 425.265625 828.515625 465.582031 905.292969 C 466.921875 907.847656 417.261719 1016.011719 460.929688 1022.980469 C 482.117188 1026.371094 447.96875 1101.53125 518.535156 1117.289062 C 550.972656 1124.53125 521.5 985.203125 537.738281 980.394531 C 587.894531 965.546875 520.769531 915.253906 599.410156 899.109375 C 612.898438 896.339844 623.46875 843.714844 605.773438 831.074219 C 602.769531 828.929688 565.675781 753.296875 526.574219 803.066406" fill="#a6d823" fill-rule="evenodd"/></g><g><path d="M 919.324219 789.316406 C 916.742188 779.109375 891.828125 811.738281 871.546875 771.40625 C 858.433594 745.335938 801.410156 764.0625 849.929688 828.132812 C 865.335938 848.472656 831.726562 888.617188 869.835938 905.121094 C 869.835938 986.382812 801.542969 918.597656 825.011719 1034 C 832 1068.351562 886.304688 1064.441406 827.664062 1087.898438 C 743.484375 1121.570312 1036.550781 1299.140625 928.800781 1092.609375 C 926.617188 1088.421875 926.070312 1013.929688 927.386719 1010.609375 C 1000.230469 1001.011719 952.773438 991.40625 971.917969 951.003906 C 953.859375 916.195312 911.988281 900.949219 956.898438 899.109375 C 966.410156 898.722656 966.714844 838.371094 954.363281 828.367188 C 928.074219 807.070312 956.152344 771.957031 919.324219 789.316406 Z M 852.316406 635.042969 C 889.628906 677.546875 908.035156 641.441406 917.257812 721.277344 C 882.730469 729.464844 893.492188 597.976562 810.9375 733.296875 C 741.910156 846.425781 843.753906 824.347656 814.996094 861.117188 C 803.460938 875.871094 772.054688 845.847656 792.378906 910.828125 C 809.757812 966.390625 740.367188 989.003906 730.707031 1030.460938 C 721.875 1068.371094 649.121094 1040.640625 706.144531 991 C 752.128906 950.964844 708.800781 919.441406 744.253906 880.378906 C 760.679688 862.28125 709.019531 798.164062 758.6875 806.6875 C 773.683594 757.089844 714.058594 756.96875 777.597656 738.65625 C 789.335938 702.265625 758.082031 669.3125 807.8125 653.246094 C 822.925781 648.363281 829.972656 609.59375 852.316406 635.042969" fill="#b5dd34" fill-rule="evenodd"/></g><g><path d="M 849.222656 236.070312 C 882.933594 193.03125 874.171875 160.910156 843.722656 134.371094 C 843.230469 92.320312 851.875 44.46875 788.746094 42.28125 C 761.835938 -6.570312 724.082031 -13.851562 702.15625 24.410156 C 685.207031 53.988281 679.613281 78.96875 652.679688 84.890625 C 640.105469 83.878906 630.300781 85.289062 622.53125 88.46875 C 633.179688 114.558594 616.355469 124.789062 688.421875 118.789062 C 693.324219 118.378906 770.949219 29.460938 764.703125 140.21875 C 762.878906 172.519531 815.800781 117.75 785.671875 206.730469 C 773.511719 242.628906 845.273438 280.441406 883.390625 279.410156 C 886.480469 279.328125 890.328125 280.558594 894.617188 282.691406 C 892.265625 256.699219 875.03125 242.878906 849.222656 236.070312" fill="#568a2f" fill-rule="evenodd"/></g><g><path d="M 412.847656 381.859375 C 369.699219 418.558594 423.9375 456.929688 355.949219 456.550781 C 338.109375 456.449219 335.5625 628.839844 241.734375 592.96875 C 245.859375 544.660156 203.25 532.578125 227.832031 512.558594 C 276.257812 473.128906 206.804688 390.25 273.539062 349.519531 C 367.09375 292.421875 277.582031 276.941406 280.726562 235.949219 C 282 219.378906 350.941406 192.171875 365.78125 194.710938 C 363.945312 200.761719 361.121094 207.011719 357.167969 213.398438 C 387.613281 212.289062 398.886719 237.660156 390.84375 289.691406 C 421.351562 293.808594 435.015625 313.730469 436.199219 345.351562 C 450.394531 340.761719 461.050781 341.058594 468.871094 345.289062 C 468.867188 345.328125 468.867188 345.359375 468.867188 345.398438 C 466.554688 386.371094 419.070312 376.570312 412.847656 381.859375 Z M 147.25 374.261719 C 293.304688 374.261719 186.71875 326.53125 245.679688 276.179688 C 286.585938 241.25 196.609375 276.359375 260.640625 168.101562 C 236.574219 117.449219 291.757812 156.820312 332.796875 137.351562 C 354.4375 127.078125 343.421875 151.878906 366.855469 164.160156 C 358.933594 132.390625 323.027344 111.601562 291.195312 113.761719 C 266.9375 115.410156 218.355469 122.351562 237.59375 163.238281 C 200.054688 160.101562 163.785156 250.441406 219.726562 259.449219 C 186.578125 271.871094 168.542969 289.171875 192.238281 319.921875 C 170.507812 311.140625 159.445312 318.851562 157.875 341.230469 C 111.265625 312.71875 71.621094 419.898438 129.015625 429.878906 C 110.261719 445.25 109.050781 462.378906 126.949219 481.421875 C 100.664062 501.859375 98.039062 524.660156 108.398438 548.769531 C 91.097656 546.789062 79.882812 552.109375 80.910156 572.128906 C 57.574219 561.308594 43.089844 569.671875 41.742188 606.492188 C -3.050781 632.480469 -14.710938 662.976562 21.125 699.953125 C -0.785156 726.746094 -9.394531 756.496094 51.371094 801.660156 C 40.613281 847.972656 36.523438 886.136719 75.421875 871.757812 C 54.433594 892.75 46.382812 914.117188 57.140625 936.035156 C 64.339844 890.394531 72.433594 930.046875 97.417969 897.441406 C 127.945312 857.601562 139.496094 874.183594 116.152344 842.953125 C 55.429688 761.738281 140.535156 731.695312 88.054688 731.097656 C 70.480469 730.894531 61.582031 689.953125 64.785156 685.5625 C 83.109375 660.5 55.320312 614.316406 79.390625 625.070312 C 155.894531 659.238281 70.175781 572.828125 96.59375 572 C 151.136719 570.289062 169.929688 534.261719 169.929688 479.398438 C 169.929688 385.78125 148.789062 397.601562 147.25 374.261719" fill="#71af2d" fill-rule="evenodd"/></g><g><path d="M 409.1875 1129.519531 C 403.695312 1124.03125 402.53125 1114.808594 403.925781 1103.378906 C 354.007812 1084.960938 359.359375 1058.171875 370.25 1030.539062 C 337.242188 982.230469 351.945312 964.996094 397.738281 968 C 389.363281 933.496094 400.386719 911.558594 423.164062 897.21875 C 370.132812 859.765625 389.390625 829.03125 415.605469 798.945312 C 393.957031 769.195312 405.183594 748.988281 440.34375 735.722656 C 429.320312 707.507812 441.734375 697.324219 454.777344 687.617188 C 426.941406 663.429688 414.300781 640.648438 411.441406 621.5 C 411.953125 632.402344 400.722656 628.777344 420.070312 686.921875 C 432.882812 725.441406 373.003906 745.605469 373.003906 835.0625 C 373.003906 893.464844 334.738281 876.402344 379.898438 920.773438 C 380.039062 920.910156 397.050781 959.335938 367.175781 959.589844 C 282.078125 960.316406 370.414062 1030.039062 332.597656 1073.328125 C 312.359375 1096.5 329.925781 1097.308594 308.035156 1102.191406 C 304.085938 1103.078125 302.238281 1106.289062 299.546875 1109.980469 C 297.328125 1113.03125 294.542969 1116.421875 289.539062 1119.101562 C 280.949219 1123.699219 265.824219 1126.230469 235.816406 1121.460938 C 230.992188 1120.691406 225.789062 1118.640625 220.355469 1115.949219 C 215.09375 1113.339844 209.621094 1110.128906 204.074219 1106.910156 C 182.773438 1094.511719 160.398438 1081.851562 144.898438 1101.929688 C 148.1875 1100.460938 151.597656 1098.648438 155.140625 1096.480469 C 161.511719 1114.570312 168.925781 1131.921875 201.179688 1131.519531 C 209.261719 1144.699219 215.277344 1145.511719 220.707031 1142.769531 C 222.253906 1141.988281 223.75 1140.921875 225.234375 1139.769531 C 238.539062 1151.890625 249.402344 1158.171875 257.734375 1158.390625 C 266.402344 1158.609375 272.328125 1152.261719 275.398438 1139.078125 C 280.105469 1143.480469 284.707031 1146.800781 289.164062 1148.679688 C 296.957031 1151.96875 304.308594 1150.871094 311.027344 1143.449219 C 313.191406 1141.058594 315.285156 1138.019531 317.308594 1134.269531 C 334.664062 1143.519531 348.976562 1142.441406 357.167969 1120.53125 C 358.765625 1123.359375 360.390625 1126.019531 362.046875 1128.449219 C 366.660156 1135.238281 371.507812 1140.339844 376.683594 1143.058594 C 386.203125 1148.050781 396.835938 1144.980469 409.1875 1129.519531" fill="#47722b" fill-rule="evenodd"/></g><g><path d="M 1094.578125 1132.058594 C 1029.148438 1116.660156 1088.621094 1112.269531 1053.578125 1098.070312 C 987.621094 1071.339844 1101.808594 914.3125 1041.921875 882.421875 C 981.808594 850.417969 1044.261719 784.015625 983.070312 772.171875 C 979.996094 787.40625 970.15625 805.273438 956.441406 825.054688 C 983.980469 830.113281 1010.058594 836.480469 983.925781 889.652344 C 1043.429688 866.808594 1042.621094 1019.449219 1007.289062 1013.351562 C 1014.519531 1061.738281 1000.53125 1092.328125 950.941406 1093.070312 C 975.457031 1106.199219 988.578125 1120.449219 993.023438 1135.558594 C 1010.289062 1137.878906 1024.761719 1133.050781 1037.109375 1122.789062 C 1043.558594 1132.300781 1050.351562 1141.621094 1061.589844 1148.261719 C 1067.640625 1151.839844 1074.980469 1154.640625 1084.25 1156.289062 C 1088.328125 1167.808594 1094.261719 1175.851562 1102.050781 1180.429688 C 1107.371094 1183.570312 1113.558594 1185.078125 1120.628906 1184.96875 C 1123.890625 1184.921875 1127.351562 1184.519531 1130.980469 1183.78125 C 1136.148438 1209.808594 1145.019531 1231.609375 1214.820312 1183.78125 C 1213.191406 1177.941406 1212.75 1172.570312 1213.289062 1167.578125 C 1206.5 1166.660156 1200.5 1165.839844 1196.660156 1165.929688 C 1165.511719 1166.640625 1145.308594 1165.058594 1132.050781 1162.25 C 1124.921875 1160.730469 1119.789062 1158.859375 1116.039062 1156.800781 C 1099.988281 1147.949219 1109.148438 1135.488281 1094.578125 1132.058594" fill="#729e2b" fill-rule="evenodd"/></g><g><path d="M 649.257812 281.050781 C 617.046875 265.449219 658.933594 250.890625 637.417969 250.980469 C 605.636719 251.128906 619.355469 223.839844 604.253906 222.980469 C 585.304688 221.890625 575.847656 219.859375 570.734375 216.691406 C 570.851562 228.320312 572.480469 240.269531 575.710938 252.570312 C 557.878906 250.839844 543.882812 253.128906 535.796875 261.550781 C 535.878906 262.640625 535.9375 263.320312 535.953125 263.351562 C 553.289062 296.648438 598.425781 276.160156 605.253906 285.421875 C 642.347656 335.648438 631.695312 303.261719 643.601562 300.460938 C 663.84375 295.710938 649.703125 281.269531 649.257812 281.050781 Z M 566.796875 487.640625 C 558.550781 424.421875 641.09375 431.988281 637.578125 480.070312 C 673.0625 470.089844 704.722656 492.648438 691.179688 546.050781 C 718.976562 554.25 736.636719 571.980469 744.027344 599.382812 C 745.761719 605.8125 746.929688 612.773438 747.53125 620.265625 C 759.871094 624.894531 768.617188 633.910156 775.515625 645.183594 C 778.761719 633.496094 785.378906 624.171875 799.753906 620.265625 C 819.914062 579.304688 840.070312 584.207031 860.230469 603.773438 C 889.574219 621.867188 903.707031 621.917969 915.394531 624.347656 L 915.199219 616.136719 C 914.359375 577.898438 930.25 559.988281 955.058594 552.910156 C 931.058594 549.308594 927.734375 535.910156 938.566406 515.800781 C 930.871094 512.671875 925.019531 508.898438 920.925781 504.53125 C 891.589844 534.96875 894.027344 571.589844 890.472656 570.109375 C 858.992188 557.019531 855.523438 574.996094 844.941406 566.988281 C 784.09375 521 801.660156 590.523438 781.914062 592.972656 C 738.515625 598.359375 779.453125 527.980469 727.78125 502.609375 C 677.230469 477.789062 696 445.039062 675.359375 444.179688 C 640.660156 442.71875 582.941406 397.171875 560.96875 450.191406 C 553.761719 467.578125 530.34375 461.589844 512.371094 453.730469 C 510.804688 461.519531 505.894531 470.320312 496.777344 480.398438 C 512.078125 478.828125 526.296875 487.550781 528.308594 507.558594 C 529.851562 522.871094 569.828125 510.910156 566.796875 487.640625" fill="#395924" fill-rule="evenodd"/></g><g><path d="M 601.84375 586.089844 C 610.519531 613.070312 540.722656 633.175781 565.585938 639.425781 C 583.519531 643.9375 557.046875 682.34375 589.914062 679.894531 C 626.894531 677.140625 591.722656 730.660156 638.363281 716.914062 C 651.476562 713.046875 647.621094 634.3125 661.132812 624.054688 C 692.957031 599.886719 595.855469 567.449219 601.84375 586.089844" fill="#98d320" fill-rule="evenodd"/></g><g><path d="M 316.652344 1218.648438 C 310.394531 1184.640625 289.484375 1155.578125 289.484375 1155.578125 C 289.351562 1153.261719 289.246094 1150.960938 289.164062 1148.679688 C 296.957031 1151.96875 304.308594 1150.871094 311.027344 1143.449219 C 312.851562 1169.28125 315.199219 1201.71875 316.652344 1218.648438 Z M 330.402344 1497.019531 C 328.496094 1471.109375 325.15625 1416.789062 325.726562 1360.078125 C 326.359375 1296.808594 331.855469 1230.570312 349.621094 1197.488281 C 363.660156 1171.351562 371.898438 1154.238281 376.683594 1143.058594 C 371.507812 1140.339844 366.660156 1135.238281 362.046875 1128.449219 C 360.300781 1131.308594 358.375 1134.648438 356.339844 1138.328125 C 356.339844 1138.328125 341.570312 1195.300781 326.621094 1233.949219 C 313.476562 1267.949219 309.496094 1342.210938 308.730469 1359.621094 C 308.625 1362 308.582031 1363.320312 308.582031 1363.320312 C 308.582031 1363.320312 317.3125 1473.320312 309.816406 1497.730469 C 316.511719 1497.480469 323.375 1497.25 330.402344 1497.019531 Z M 299.449219 1222.230469 C 286.359375 1196.871094 272.277344 1176.480469 257.734375 1158.390625 C 249.402344 1158.171875 238.539062 1151.890625 225.234375 1139.769531 C 223.75 1140.921875 222.253906 1141.988281 220.707031 1142.769531 C 224.761719 1148.230469 229.125 1154.21875 233.617188 1160.570312 C 233.617188 1160.570312 280.007812 1188.339844 299.449219 1222.230469" fill="#2e2419" fill-rule="evenodd"/></g><g><path d="M 512.484375 1365.140625 C 541.367188 1262.859375 415.351562 1268.589844 406.652344 1333.53125 C 384.503906 1351.378906 376.289062 1370.820312 384.015625 1392.078125 C 387.847656 1387.230469 392.65625 1382.488281 398.40625 1377.859375 C 407.101562 1312.910156 533.121094 1307.191406 504.234375 1409.46875 C 533.222656 1377.460938 549.464844 1382.839844 550.964844 1431.460938 C 566.292969 1383.441406 650.652344 1398.351562 626.558594 1458.949219 C 636.71875 1459.449219 644.160156 1461.480469 648.824219 1465.089844 C 671.738281 1432.640625 666.4375 1416.171875 634.808594 1414.621094 C 646.921875 1384.148438 631.613281 1365.230469 611.449219 1360.058594 C 599.699219 1357.039062 586.296875 1358.699219 575.714844 1365.449219 C 568.34375 1370.160156 562.339844 1377.328125 559.210938 1387.140625 C 557.710938 1338.519531 541.472656 1333.128906 512.484375 1365.140625" fill="#b5dd34" fill-rule="evenodd"/></g><g><path d="M 353.050781 1422.871094 C 357.878906 1377.558594 345.003906 1363.21875 325.726562 1360.078125 C 325.574219 1375.089844 325.699219 1389.929688 325.996094 1404.121094 C 336.484375 1412.089844 342.0625 1428.660156 338.617188 1461.011719 C 363.113281 1468.140625 374.066406 1480.398438 376.90625 1495.730469 C 380.109375 1495.648438 383.34375 1495.578125 386.609375 1495.511719 C 397.285156 1463.019531 395.535156 1435.238281 353.050781 1422.871094 Z M 285.703125 1362.398438 C 283.96875 1338.46875 275.078125 1330.441406 256.839844 1343.148438 C 252.167969 1310.71875 204.015625 1317.179688 201.175781 1347.28125 C 169.851562 1304.019531 115.898438 1337.519531 126.617188 1372.859375 C 142.988281 1361.058594 168.640625 1360.429688 186.742188 1385.421875 C 189.582031 1355.320312 237.734375 1348.859375 242.40625 1381.289062 C 260.640625 1368.578125 269.535156 1376.609375 271.269531 1400.539062 C 278.726562 1399.5 286.242188 1398.371094 293.421875 1397.820312 C 293.09375 1385.710938 292.753906 1373.441406 292.40625 1361.460938 C 290.175781 1361.769531 287.9375 1362.078125 285.703125 1362.398438" fill="#98d320" fill-rule="evenodd"/></g><g><path d="M 830.230469 1413.039062 C 829.625 1402.941406 828.949219 1393 828.210938 1383.78125 C 825.644531 1384.328125 823.027344 1384.988281 820.351562 1385.761719 C 803.738281 1348.851562 736.40625 1373.699219 751.101562 1409.78125 C 768.089844 1394.871094 801.144531 1392.328125 812.109375 1416.691406 C 818.457031 1414.859375 824.492188 1413.648438 830.230469 1413.039062 Z M 908.316406 1424.25 C 898.273438 1404.300781 884.984375 1390.851562 867.898438 1384.988281 C 867.3125 1395.769531 866.898438 1407.300781 866.613281 1418.820312 C 880.402344 1425.671875 891.441406 1438.011719 900.074219 1455.171875 C 918.117188 1456.859375 930.519531 1462.191406 938.65625 1470.28125 C 945.308594 1469.558594 952.335938 1468.859375 959.636719 1468.199219 C 956.898438 1444.28125 943.085938 1427.511719 908.316406 1424.25" fill="#98d320" fill-rule="evenodd"/></g><g clip-path="url(#a)"><path d="M 1592.820312 1529.121094 C 1544.71875 1535.988281 1415.519531 1496.820312 1342.679688 1511.941406 C 1269.832031 1527.058594 1215.539062 1515.378906 1091.839844 1521.558594 C 968.144531 1527.75 869.875 1526.378906 809.398438 1544.929688 C 748.925781 1563.480469 532.449219 1552.488281 532.449219 1552.488281 C 532.449219 1552.488281 416.3125 1540.121094 349.652344 1539.429688 C 282.992188 1538.738281 252.066406 1521.570312 203.273438 1523.628906 C 154.484375 1525.691406 45.910156 1524.308594 45.910156 1524.308594 C 45.421875 1525.417969 15.617188 1535.261719 10.25 1537.46875 C 20.117188 1542.21875 80.367188 1531.621094 103.757812 1542.449219 C 113.988281 1547.179688 195.039062 1552.167969 212.671875 1552.167969 C 219.941406 1552.167969 336.207031 1558.011719 337.253906 1559.378906 C 365.972656 1559.378906 399.207031 1566.601562 436.269531 1566.601562 C 467.964844 1566.601562 517.773438 1569.699219 546.953125 1563.679688 C 567.285156 1559.488281 730.222656 1559.878906 751.878906 1568.128906 C 773.894531 1576.519531 879.160156 1564.738281 902.910156 1556.140625 C 916.671875 1551.160156 926.617188 1548.511719 940.285156 1544.949219 C 960.074219 1529.679688 1225.160156 1546.589844 1252.257812 1555.230469 C 1296.421875 1569.308594 1419.0625 1526.46875 1529.640625 1561.058594 C 1576.03125 1575.570312 1924.457031 1576.609375 1962.34375 1560.230469 C 2076.832031 1510.761719 2034.386719 1543.140625 2129.34375 1530.019531 C 2262.050781 1511.667969 2259.476562 1488.828125 2420.558594 1494.441406 C 2437.546875 1495.03125 2677.414062 1463.949219 2673.085938 1447.558594 C 2671.378906 1441.070312 2664.394531 1441.628906 2618.835938 1435.921875 C 2623.34375 1437.28125 2625.34375 1439.199219 2625.015625 1441.851562 C 2623.640625 1452.839844 2436.039062 1459.710938 2399.613281 1469.339844 C 2363.191406 1478.960938 2231.238281 1463.828125 2192.761719 1479.640625 C 2154.289062 1495.449219 2101.363281 1485.140625 2101.363281 1485.140625 C 2101.363281 1485.140625 1956.355469 1483.769531 1936.429688 1495.449219 C 1916.503906 1507.128906 1886.261719 1495.449219 1871.832031 1507.820312 C 1857.398438 1520.191406 1829.910156 1518.128906 1829.910156 1518.128906 C 1829.910156 1518.128906 1640.933594 1522.25 1592.820312 1529.121094" fill="#67a12f" fill-rule="evenodd"/></g><g><path d="M 866.613281 1418.820312 C 865.964844 1444.75 865.960938 1470.640625 866.070312 1487.878906 C 860.84375 1490.609375 854.800781 1492.980469 848.054688 1495.019531 C 848.90625 1483.351562 849.875 1471.148438 849.863281 1471.128906 C 843.714844 1449.148438 844.195312 1430.941406 844.195312 1407.910156 C 844.195312 1399.089844 845.914062 1389.621094 847.789062 1381.660156 C 850.042969 1372.109375 852.519531 1364.75 852.53125 1363.320312 C 852.648438 1345.878906 864.386719 1326.570312 871.242188 1310.808594 C 873.824219 1306.671875 876.710938 1301.550781 879.683594 1296.019531 C 887.996094 1283.390625 899.398438 1267.640625 898.203125 1265.828125 C 899.996094 1267.121094 901.753906 1268.300781 903.472656 1269.328125 C 894.855469 1287.078125 881.671875 1314.871094 874.648438 1332.859375 C 871.265625 1341.539062 869.171875 1361.5 867.898438 1384.988281 C 867.3125 1395.769531 866.898438 1407.300781 866.613281 1418.820312 Z M 840.289062 1324.621094 C 838.898438 1329.71875 817.1875 1301.058594 803.203125 1281.851562 C 799.714844 1284.011719 796.503906 1285.710938 793.554688 1287 C 795.351562 1289.140625 797.289062 1291.550781 799.296875 1294.199219 C 808.191406 1292.488281 813.050781 1307.171875 822.507812 1317.410156 C 825.886719 1321.058594 836.558594 1338.269531 846.171875 1328.230469 C 847.269531 1327.078125 842.804688 1298.578125 843.167969 1289.75 C 843.171875 1289.570312 842.476562 1283.089844 842.097656 1279.929688 C 840.734375 1279.71875 839.34375 1279.421875 837.929688 1279.070312 C 839.71875 1298.519531 841.402344 1320.550781 840.289062 1324.621094" fill="#3e3120" fill-rule="evenodd"/></g><g><path d="M 1077.378906 1216.71875 C 1073.421875 1218.980469 1061.769531 1198.480469 1061.300781 1194.140625 C 1058.46875 1167.710938 1050.28125 1162.128906 1043.738281 1154.199219 C 1041.558594 1143.320312 1039.210938 1132.328125 1037.109375 1122.789062 C 1043.558594 1132.300781 1050.351562 1141.621094 1061.589844 1148.261719 C 1067.289062 1175.878906 1075.609375 1214.949219 1077.378906 1216.71875 Z M 1050.390625 1209.390625 C 1045.421875 1214.160156 1014.679688 1181.128906 992.382812 1163.179688 C 990.960938 1167.871094 988.9375 1172.621094 986.378906 1177.421875 C 989.269531 1179.878906 992.523438 1182.738281 995.996094 1185.960938 C 1013.589844 1192.839844 1043.390625 1223.320312 1050.390625 1209.390625 Z M 1113.238281 1469.75 C 1105.660156 1410.46875 1088.179688 1265.828125 1095.25 1243.519531 C 1100.210938 1227.871094 1111.539062 1203.519531 1120.628906 1184.96875 C 1117.21875 1185.019531 1114.019531 1184.691406 1111.011719 1184 C 1112.558594 1207.761719 1076.128906 1210.730469 1076.128906 1293.871094 C 1076.128906 1348.761719 1088.5 1378.109375 1088.5 1436.601562 C 1088.5 1444.449219 1086.769531 1456.339844 1086.628906 1467.351562 C 1095.390625 1468.179688 1104.269531 1468.988281 1113.238281 1469.75" fill="#2e2419" fill-rule="evenodd"/></g><g><path d="M 1930.324219 771.496094 C 1923.261719 829.714844 1927.023438 723.523438 1927.085938 723.195312 C 1954.59375 595.210938 1855.296875 686.367188 1858.535156 648.800781 C 1952.289062 588.8125 1861.492188 610.695312 1840.800781 603.800781 C 1845.125 595.78125 1937.898438 512.378906 1892.335938 510.320312 C 1799.414062 506.121094 1917.949219 422.496094 1887.859375 372.367188 C 1870.0625 342.722656 1914.816406 302.746094 1885.324219 275.648438 C 1857.652344 250.203125 1904.863281 257.046875 1891.339844 190.417969 C 1888.191406 174.898438 1890.035156 135.015625 1893.910156 102.929688 C 1885.363281 137.101562 1870.765625 164.277344 1848.375 182.472656 C 1924.4375 126.777344 1873.632812 237.421875 1805.773438 260.820312 C 1877.238281 243.972656 1887.089844 248.335938 1796.152344 332.285156 C 1936.707031 245.800781 1862.617188 332.035156 1767.289062 435.367188 C 1856.898438 399.101562 1882.523438 406.070312 1763.15625 510.960938 C 1864.457031 487.804688 1855.667969 514.632812 1752.164062 605.792969 C 1846.535156 571.078125 1849.246094 589.980469 1760.109375 662.601562 C 1763.488281 664.925781 1766.953125 667.191406 1770.511719 669.414062 C 1798.238281 672.179688 1792.914062 686.257812 1747.164062 714.1875 C 1757.332031 724.332031 1768.859375 732.453125 1781.027344 739.617188 C 1795.089844 720.351562 1808.242188 696.191406 1819.539062 662.136719 C 1831.65625 696.128906 1844.820312 729.503906 1877.253906 751.476562 L 1837.398438 752.164062 C 1855.964844 790.476562 1879.070312 823.835938 1917.808594 840.125 L 1859.390625 831.191406 C 1880.183594 871.175781 1906.882812 899.335938 1937.742188 919.15625 C 1917.464844 912.40625 1897.097656 906.386719 1875.882812 908.847656 C 1896.035156 958.675781 1925 987.898438 1953.542969 1018.121094 L 1888.933594 991.316406 C 1907.152344 1021.480469 1929.054688 1045.511719 1952.621094 1066.75 C 1976.152344 1036.191406 1964.96875 1034.921875 1936.335938 1048.359375 C 2019.511719 968.410156 2005.566406 961.289062 1949.398438 985.824219 C 2050.511719 895.269531 2045.519531 879.378906 1948.707031 928.101562 C 2054.09375 815.78125 2085.4375 762.675781 1963.832031 831.890625 C 1998.734375 794.40625 2026.777344 762.691406 2044.101562 740.039062 L 2044.777344 706.390625 C 2031.894531 711.929688 2011.921875 723.433594 1983.761719 741.863281 C 2007.085938 712.421875 2025.90625 687.671875 2039.109375 668.757812 C 2026.046875 663.136719 2021.3125 654.71875 2025.242188 646.765625 C 2018.066406 652.285156 2009.773438 658.996094 2000.242188 666.960938 C 2010.3125 653.246094 2022.09375 638.070312 2033.761719 623.003906 C 1988.894531 590.34375 1979.617188 574.179688 1996.121094 569.960938 C 1970.214844 565.515625 2006.523438 624.003906 1982.753906 614.753906 C 1954.132812 603.613281 1967.414062 645.695312 1968.859375 647.800781 C 2009.160156 706.292969 1935.644531 727.679688 1930.324219 771.496094 Z M 1319.25 700.628906 C 1350.210938 672.746094 1374.417969 636.890625 1385.21875 585.179688 C 1388.378906 629.824219 1407.042969 672.140625 1439.515625 700.289062 C 1426.914062 699.140625 1410.882812 693.53125 1398.28125 692.386719 C 1414.132812 718.328125 1431.3125 743.792969 1452.640625 767.773438 L 1544.644531 658.035156 L 1458.746094 687.585938 L 1554.265625 582.441406 L 1476.617188 608.554688 C 1491.703125 596.746094 1507.195312 584.992188 1522.023438 571.660156 C 1516.792969 570.308594 1511.90625 568.558594 1507.375 566.414062 C 1499.699219 562.765625 1493.070312 557.964844 1487.507812 551.980469 C 1477.832031 557.375 1467.1875 568.992188 1466.640625 575.761719 C 1458.527344 675.742188 1422.410156 586.570312 1404.972656 562.210938 C 1373.101562 517.703125 1354.691406 605.683594 1351.183594 589.542969 C 1339.515625 535.722656 1382.554688 499.320312 1315.144531 500.363281 C 1280.90625 500.890625 1377.117188 347.917969 1351.003906 292.140625 C 1328.691406 244.433594 1377.644531 218.269531 1360.089844 180.988281 C 1353.078125 166.121094 1362.304688 124.15625 1364.59375 95.152344 C 1362.035156 85.554688 1359.78125 75.679688 1357.722656 65.648438 C 1349.96875 120.777344 1329.0625 160.566406 1299.304688 190.03125 C 1388.863281 123.425781 1348.203125 188.523438 1278.007812 283.492188 C 1374.214844 237.382812 1303.988281 306.792969 1241.589844 370.773438 C 1338.492188 336.628906 1325.1875 371.925781 1238.839844 453.234375 C 1290.167969 431.21875 1277.769531 452.0625 1252.109375 481.824219 C 1269.628906 485.707031 1283.132812 499.332031 1286.625 537.109375 C 1331.816406 584.695312 1328.832031 628.101562 1289.722656 668.363281 C 1305.152344 694.113281 1298.601562 714.800781 1290.054688 735.019531 C 1309.003906 748.902344 1330.113281 760.183594 1320.941406 807.785156 C 1333.964844 791.566406 1345.160156 773.761719 1353.601562 753.546875 L 1326.121094 752.859375 C 1344.148438 732.867188 1359.871094 710.546875 1368.710938 681.390625 L 1319.25 700.628906" fill="#2c3619" fill-rule="evenodd"/></g><g><path d="M 2407.777344 1169.296875 C 2349.296875 1144.410156 2309.128906 1108.070312 2279.953125 1064.847656 C 2323.8125 1063.527344 2352.960938 1059.5 2396.09375 1035.300781 C 2325.1875 1035.148438 2271.960938 999.125 2235.972656 960.390625 C 2274.804688 969.089844 2321.527344 975.523438 2354.851562 960.390625 C 2267.195312 922.078125 2215.042969 858.976562 2193.371094 796.832031 C 2219.71875 819.648438 2250.789062 838.671875 2304.695312 839.441406 C 2245.777344 799.726562 2204.644531 753.175781 2193.371094 695.128906 C 2214.4375 709.332031 2239.632812 720.78125 2262.078125 728.113281 C 2166.898438 635.925781 2139.628906 577.921875 2249.714844 619.535156 C 2158.53125 531.265625 2155.140625 508.054688 2216.039062 520.574219 C 2136.78125 444.359375 2107.679688 397.941406 2176.875 429.863281 C 2141.703125 382.21875 2122.449219 334.574219 2107.46875 286.925781 C 2110.980469 316.339844 2139.144531 428.667969 2127.21875 428.195312 C 2065.484375 425.761719 2156.382812 474.136719 2139.777344 491.578125 C 2114.445312 518.195312 2185.210938 562.203125 2134.996094 562.203125 C 2081.316406 562.203125 2225.410156 683.363281 2178.113281 681.957031 C 2161.828125 681.46875 2071.070312 697.457031 2135.648438 729.726562 C 2149.691406 736.742188 2204.8125 767.636719 2191.128906 788.628906 C 2107.40625 794.765625 2089.277344 787.167969 2158.683594 866.792969 C 2197.335938 911.140625 2103.578125 897.328125 2178.054688 971.40625 C 2230.144531 1023.210938 2020.839844 965.488281 2228.585938 1042.390625 C 2279.257812 1061.140625 2243.933594 1094.300781 2190.128906 1092.039062 C 2112.808594 1088.800781 2356.199219 1137.667969 2256.101562 1184.46875 C 2204.886719 1208.410156 2289.652344 1261.28125 2297.6875 1277.238281 L 2302.820312 1283.769531 C 2302.820312 1335.429688 2296.539062 1311.699219 2256.933594 1310.21875 C 2259.824219 1334.621094 2359.996094 1409.082031 2387.875 1407.46875 C 2390.492188 1407.320312 2397.4375 1408.210938 2406.988281 1409.570312 C 2364.054688 1397.449219 2334.738281 1363.089844 2303.320312 1333.539062 C 2364.914062 1345.910156 2418.113281 1356.230469 2466.875 1335.609375 C 2358.40625 1313.058594 2323.539062 1263.589844 2290.941406 1213.289062 C 2327.277344 1237.070312 2371 1249.050781 2425.648438 1243.519531 C 2372.363281 1232.878906 2330.9375 1206.058594 2297.824219 1167.929688 C 2335.328125 1177.960938 2372.089844 1179.429688 2407.777344 1169.296875" fill="#87bd27" fill-rule="evenodd"/></g><g><path d="M 1937.734375 919.15625 C 1917.460938 912.40625 1897.097656 906.382812 1875.890625 908.847656 C 1880.25 919.621094 1885.019531 929.429688 1890.097656 938.496094 C 1868.449219 922.527344 1819.339844 915.019531 1831.746094 894.121094 C 1887.0625 894.121094 1844.113281 897.070312 1844.113281 883.816406 C 1844.113281 837.863281 1777.402344 836.574219 1808.066406 829.503906 C 1875.941406 813.859375 1800.183594 799.316406 1823.5 786.210938 C 1836.296875 779.019531 1839.789062 767.746094 1838.691406 754.796875 C 1857.039062 792 1879.972656 824.207031 1917.8125 840.125 L 1859.398438 831.191406 C 1880.175781 871.175781 1906.882812 899.335938 1937.734375 919.15625 Z M 1986.519531 1231.519531 C 1965.199219 1214.050781 1946.648438 1193.949219 1929.273438 1172.769531 C 1920.410156 1161.980469 1911.851562 1150.898438 1903.375 1139.75 L 1934.496094 1145.621094 L 1987.226562 1155.558594 C 1970.457031 1143.550781 1954.113281 1131.308594 1939.816406 1118 C 1927.054688 1106.140625 1915.921875 1093.441406 1907.5 1079.28125 L 1946.4375 1083.558594 L 1976.21875 1086.839844 C 1968.238281 1080.359375 1960.34375 1073.710938 1952.625 1066.75 C 1929.0625 1045.507812 1907.160156 1021.480469 1888.9375 991.316406 L 1953.535156 1018.121094 C 1934.988281 998.46875 1916.25 979.238281 1899.871094 954.492188 C 1899.847656 954.863281 1899.832031 955.242188 1899.78125 955.621094 C 1884.917969 958.464844 1803.300781 936.003906 1869.394531 980.714844 C 1904.851562 1004.699219 1815.554688 996.003906 1898.066406 1050.808594 C 1937.28125 1076.839844 1794.636719 1074.859375 1878.636719 1108.179688 C 1940.636719 1132.769531 1841.289062 1123.441406 1844.113281 1143.582031 C 1845.238281 1151.539062 1865.410156 1181.808594 1877.742188 1207.117188 C 1887.097656 1226.339844 1891.941406 1242.699219 1880.464844 1244.25 C 1858.941406 1247.148438 1842.4375 1247.738281 1831.152344 1247.628906 C 1807.207031 1247.398438 1806.652344 1244.011719 1831.179688 1252.648438 C 1845.792969 1257.808594 1869.292969 1267.21875 1902.078125 1284.128906 C 1903.878906 1285.058594 1905.632812 1285.960938 1907.324219 1286.839844 C 1989.433594 1329.640625 1933.839844 1312.75 1901.308594 1318.039062 C 1888.660156 1320.089844 1879.496094 1325.5 1883.289062 1339.082031 C 1883.832031 1341.039062 1888.824219 1344.070312 1895.621094 1347.609375 C 1919.300781 1359.941406 1964.84375 1378.371094 1920.335938 1378.429688 C 1887.992188 1378.46875 1967.542969 1408.742188 1994.085938 1435.800781 C 1995.574219 1437.308594 1997.046875 1438.820312 1998.546875 1440.289062 C 2006.894531 1439.289062 2014.511719 1438.441406 2021.546875 1437.75 C 2008.949219 1427.519531 1995.800781 1414.898438 1993.402344 1407.078125 C 1994.792969 1404.511719 2054.214844 1430.089844 2051.128906 1424.257812 C 2006.820312 1401.890625 1977.023438 1369.199219 1961.101562 1326.667969 L 2055.25 1340.417969 C 2005.09375 1318.101562 1962.488281 1284.847656 1928.796875 1238.710938 L 2020.199219 1255.199219 C 2008.183594 1248.058594 1997.011719 1240.109375 1986.519531 1231.519531 Z M 1877.261719 751.476562 C 1844.820312 729.5 1831.65625 696.125 1819.539062 662.136719 C 1817.902344 667.070312 1816.222656 671.800781 1814.507812 676.335938 C 1815.871094 695.679688 1835.113281 726.730469 1838.402344 752.144531 L 1877.261719 751.476562" fill="#a6d823" fill-rule="evenodd"/></g><g><path d="M 1481.429688 1436.621094 C 1510.640625 1422.351562 1536.398438 1403.710938 1554.640625 1375.589844 C 1558.539062 1369.578125 1562.101562 1363.140625 1565.269531 1356.21875 C 1554.730469 1360.238281 1543.949219 1363.570312 1533 1366.410156 C 1518.578125 1370.148438 1503.859375 1373.03125 1488.988281 1375.460938 C 1496.199219 1369.328125 1503.351562 1363.148438 1510.359375 1356.820312 C 1530.710938 1338.421875 1549.75 1318.699219 1564.808594 1295 L 1556.5 1280.800781 C 1541.839844 1284.539062 1525.410156 1285.148438 1506.859375 1282 C 1516.488281 1275.378906 1525.929688 1268.480469 1535 1261.050781 C 1521.019531 1249.078125 1507.691406 1235.160156 1495.871094 1216.730469 L 1549.46875 1209.851562 C 1520.300781 1188.011719 1497.078125 1157.960938 1475.25 1126.019531 L 1549.46875 1128.761719 C 1509.328125 1110.261719 1478 1076.421875 1460.820312 1043.210938 C 1481.820312 1043.78125 1512.089844 1048.808594 1531.261719 1041.140625 C 1497.808594 1021.070312 1468.828125 992.625 1451.890625 956.960938 C 1472.960938 958.90625 1494.71875 962.570312 1514.421875 959.363281 C 1498.039062 949.503906 1482.5 936.753906 1469.011719 922.648438 C 1461.558594 914.851562 1454.71875 906.648438 1448.71875 898.289062 C 1440.089844 886.289062 1433.160156 873.976562 1428.519531 862.121094 L 1478.890625 868.109375 L 1497.929688 870.371094 C 1493.289062 867.890625 1488.851562 865.230469 1484.589844 862.414062 C 1476.378906 856.988281 1468.808594 850.980469 1461.769531 844.507812 C 1460.859375 843.671875 1459.949219 842.824219 1459.058594 841.972656 C 1441.320312 825.070312 1426.859375 805.222656 1413.398438 784.472656 C 1434.761719 794.132812 1456.859375 798.628906 1480.058594 795.464844 C 1470.398438 786.722656 1461.511719 777.703125 1453.25 768.457031 C 1453.050781 768.230469 1452.839844 768 1452.640625 767.773438 C 1431.308594 743.792969 1414.128906 718.328125 1398.28125 692.382812 C 1410.878906 693.53125 1426.921875 699.140625 1439.511719 700.289062 C 1409.25 674.050781 1390.980469 635.507812 1386.078125 594.238281 C 1383.070312 608.335938 1368.480469 631.488281 1391.96875 659.796875 C 1402.558594 672.554688 1384.75 660.980469 1395.21875 706.152344 C 1416.851562 799.519531 1388.378906 739.4375 1376.539062 759.582031 C 1368.871094 772.640625 1442.5 823.539062 1402.929688 821.960938 C 1357.601562 820.152344 1429.800781 878.328125 1429.261719 882.925781 C 1405.890625 894.878906 1358.410156 875.921875 1411.878906 938.898438 C 1414.238281 941.671875 1416.789062 944.613281 1419.550781 947.71875 C 1422.441406 950.964844 1425.558594 954.398438 1428.910156 958.027344 C 1444.769531 975.195312 1430.269531 978.03125 1422.191406 984.859375 C 1417.238281 989.046875 1414.699219 994.734375 1423.078125 1006.148438 C 1423.308594 1006.46875 1423.539062 1006.78125 1423.769531 1007.089844 C 1447.441406 1038.761719 1477.828125 1051.160156 1426.558594 1046.289062 C 1418.21875 1045.5 1407.71875 1044.25 1394.679688 1042.550781 C 1394.351562 1042.511719 1409.78125 1053.671875 1428.070312 1067.621094 C 1447.210938 1082.210938 1469.488281 1099.859375 1480.148438 1110.941406 C 1478.378906 1111.550781 1455.171875 1116.011719 1432.011719 1122.988281 C 1395.929688 1133.859375 1359.988281 1150.828125 1405.351562 1168.839844 C 1405.5 1168.910156 1428.261719 1185.191406 1439.121094 1197.640625 C 1444.789062 1204.148438 1447.21875 1209.601562 1441.488281 1211.160156 C 1440.351562 1211.46875 1438.878906 1211.628906 1437.039062 1211.609375 C 1346.320312 1210.480469 1412.871094 1231.089844 1448.75 1252.53125 C 1467.21875 1263.570312 1477.558594 1274.820312 1454.179688 1283.441406 C 1448.851562 1285.410156 1441.789062 1287.230469 1432.679688 1288.890625 C 1433.011719 1299.609375 1446.789062 1308.570312 1459.789062 1315.441406 C 1478.96875 1325.578125 1496.449219 1331.179688 1466.609375 1331.179688 C 1496.789062 1331.179688 1503.300781 1340.949219 1492.519531 1349.261719 C 1486.488281 1353.910156 1475.050781 1358.109375 1459.300781 1359.871094 C 1404.660156 1365.988281 1573.53125 1401.21875 1433.558594 1399.21875 C 1385.96875 1398.539062 1429.800781 1429.199219 1456.53125 1460.890625 C 1456.96875 1461.410156 1463.328125 1467.160156 1470.25 1473.378906 C 1483.558594 1472.738281 1497.199219 1472.058594 1510.980469 1471.328125 C 1521.140625 1462.230469 1530.429688 1451.351562 1537.089844 1435.25 L 1481.429688 1436.621094" fill="#87bd27" fill-rule="evenodd"/></g><g><path d="M 1609.136719 1422.398438 C 1608.640625 1432.980469 1580.394531 1444.75 1565.21875 1468.300781 C 1547.226562 1469.371094 1529 1470.390625 1510.984375 1471.328125 C 1521.140625 1462.230469 1530.4375 1451.347656 1537.097656 1435.25 L 1481.433594 1436.617188 C 1510.648438 1422.347656 1536.410156 1403.710938 1554.648438 1375.589844 C 1557.941406 1370.5 1561.003906 1365.097656 1563.78125 1359.367188 C 1569.953125 1358.140625 1579.210938 1356.199219 1592.378906 1353.75 L 1598.574219 1352.710938 C 1621.484375 1349.351562 1617.429688 1356.359375 1606.511719 1366.269531 C 1599.707031 1372.449219 1590.230469 1379.757812 1582.949219 1386.390625 C 1582.65625 1386.660156 1582.351562 1386.929688 1582.070312 1387.199219 C 1505.582031 1457.109375 1610.605469 1391.101562 1609.136719 1422.398438 Z M 1581.746094 1166.320312 C 1591.800781 1150.179688 1600.539062 1120.558594 1604.6875 1113.566406 C 1608.09375 1107.828125 1617.511719 1072.726562 1601.59375 1075.777344 C 1598.9375 1076.289062 1604.109375 1053.589844 1608.335938 1031.820312 C 1597.640625 1062.308594 1580.050781 1085.339844 1559.097656 1104.699219 C 1575.011719 1105.636719 1589.90625 1100.789062 1603.074219 1086.136719 C 1594.953125 1133.816406 1568.3125 1159.898438 1543.28125 1187.847656 C 1561.367188 1191.089844 1579.941406 1187.140625 1598.949219 1177.539062 C 1583.703125 1214.148438 1560.890625 1239.820312 1535 1261.050781 C 1525.9375 1268.480469 1516.5 1275.378906 1506.867188 1282 C 1525.417969 1285.148438 1541.84375 1284.539062 1556.5 1280.796875 C 1563.730469 1278.949219 1570.53125 1276.347656 1576.960938 1273.070312 C 1573.300781 1280.757812 1569.226562 1288.050781 1564.816406 1295 C 1549.75 1318.699219 1530.710938 1338.417969 1510.367188 1356.820312 C 1503.351562 1363.148438 1496.203125 1369.328125 1488.996094 1375.460938 C 1503.867188 1373.027344 1518.585938 1370.148438 1533.003906 1366.410156 C 1539.925781 1364.617188 1546.78125 1362.628906 1553.542969 1360.390625 C 1553.601562 1358.339844 1569.4375 1349.21875 1584.632812 1328.878906 C 1585.738281 1327.398438 1586.84375 1325.867188 1587.9375 1324.269531 C 1652.445312 1229.828125 1579.910156 1261.558594 1574.527344 1257.558594 C 1580.882812 1249.757812 1600.003906 1216.910156 1602.089844 1209.46875 C 1621.191406 1141.359375 1587.777344 1166.320312 1581.746094 1166.320312" fill="#2c3619" fill-rule="evenodd"/></g><g><path d="M 1811.882812 1448.789062 C 1810.894531 1438.441406 1805.886719 1421.507812 1814.902344 1404.101562 C 1821.945312 1390.519531 1823.515625 1381.609375 1821.910156 1375.640625 C 1815.398438 1351.230469 1756.191406 1375.859375 1803.066406 1331.300781 C 1822.25 1313.050781 1819.664062 1280.667969 1801.5625 1280.667969 C 1622.207031 1280.667969 1723.652344 1282.398438 1753.886719 1232.628906 C 1779.460938 1190.519531 1747.082031 1207.910156 1734.894531 1207.480469 C 1734.402344 1204.570312 1751.058594 1191.378906 1753.246094 1189.378906 C 1756.570312 1186.339844 1759.414062 1183.589844 1761.804688 1181.109375 C 1788.792969 1153.1875 1759.097656 1159.808594 1739.1875 1161.929688 C 1733.648438 1162.519531 1728.855469 1162.757812 1726.257812 1161.808594 C 1730.683594 1157.027344 1734.804688 1152.359375 1738.570312 1147.6875 C 1756.550781 1125.460938 1766.859375 1103.378906 1766.859375 1070.378906 C 1766.859375 1038.199219 1768.039062 1045.628906 1751.898438 1051.828125 C 1752.515625 1047.21875 1805.546875 1008.636719 1804.042969 988.457031 C 1803.71875 983.960938 1752.484375 998.59375 1746.722656 1000.027344 C 1740.636719 1001.558594 1735.917969 1003.179688 1732.414062 1004.628906 C 1731.066406 1005.1875 1729.898438 1005.71875 1728.886719 1006.21875 C 1729.898438 1005.359375 1731.054688 1004.308594 1732.347656 1003.039062 C 1734.683594 1000.730469 1737.457031 997.679688 1740.566406 993.757812 C 1752.460938 978.738281 1763.925781 980.238281 1772.070312 965.207031 C 1791.082031 930.082031 1790.859375 941.742188 1791.589844 903.816406 C 1792.140625 875.558594 1767.542969 889.738281 1767.363281 890.5 C 1767.363281 889.496094 1798.125 840.769531 1796.699219 829.078125 C 1788.367188 824.027344 1767.242188 839.535156 1779.269531 823.363281 C 1783.132812 818.152344 1786.726562 811.90625 1790.074219 805.273438 C 1800.503906 784.691406 1808.738281 760.417969 1816.6875 751.972656 C 1830.605469 737.183594 1803.582031 740.851562 1792.441406 747.371094 C 1793.835938 744.882812 1795.96875 739.417969 1796.316406 738.925781 C 1801.988281 731.035156 1819.5625 701.660156 1817.925781 691.460938 C 1817.746094 690.902344 1817.566406 690.347656 1817.398438 689.800781 C 1815.871094 684.90625 1814.792969 680.367188 1814.511719 676.332031 C 1804.414062 703.089844 1793.058594 723.140625 1781.03125 739.617188 C 1779.550781 741.644531 1778.054688 743.617188 1776.550781 745.542969 C 1769.957031 754.019531 1763.1875 761.554688 1756.324219 768.652344 L 1807.863281 756.285156 C 1801.394531 774.324219 1793.207031 789.683594 1783.761719 803.078125 C 1771.214844 820.867188 1756.449219 835.183594 1740.511719 847.6875 L 1785.1875 840.125 C 1769.328125 875.625 1749.96875 903.214844 1729.078125 927.414062 C 1723.148438 934.289062 1717.09375 940.894531 1710.964844 947.328125 C 1717.21875 946.332031 1723.53125 944.03125 1729.671875 941.1875 C 1747.675781 932.847656 1764.140625 919.832031 1772.8125 921.214844 C 1779.222656 922.238281 1755.820312 953.113281 1731.4375 981.84375 C 1711.605469 1005.207031 1691.128906 1027.148438 1685.539062 1030.480469 C 1699.035156 1030.488281 1716.601562 1026.820312 1733.097656 1020.699219 C 1744.410156 1016.5 1755.222656 1011.160156 1763.882812 1005.058594 C 1756.539062 1023.539062 1746.453125 1041.230469 1734.707031 1057.878906 C 1719.902344 1078.867188 1702.449219 1098.199219 1684.503906 1115.347656 C 1700.058594 1112.007812 1719.914062 1107.398438 1736.671875 1103.6875 C 1739.421875 1103.089844 1742.09375 1102.5 1744.632812 1101.949219 C 1743.050781 1109.070312 1740.589844 1115.699219 1737.46875 1121.9375 C 1726.4375 1143.929688 1706.921875 1161.078125 1686.222656 1177.550781 L 1728.832031 1174.800781 C 1714.769531 1197.730469 1698.328125 1215.109375 1679.136719 1226.007812 C 1689.769531 1235.859375 1701.800781 1244.398438 1715.085938 1251.757812 L 1651.183594 1246.269531 C 1667.691406 1276.4375 1708.324219 1310.140625 1729.214844 1322.417969 C 1711.726562 1320.460938 1680.675781 1319.628906 1663.546875 1315.667969 C 1667.476562 1319.710938 1708.371094 1360.617188 1751.515625 1376.828125 C 1722.835938 1384.800781 1696.128906 1385.359375 1671.105469 1379.578125 C 1676.765625 1385.289062 1682.550781 1390.800781 1688.511719 1396.089844 C 1709.773438 1414.980469 1733.15625 1431.050781 1759.75 1442.808594 L 1730.203125 1455.179688 C 1754.964844 1452.101562 1783.132812 1450.160156 1811.882812 1448.789062 Z M 1729.214844 1322.417969 C 1737.894531 1323.390625 1743.230469 1324.628906 1741.894531 1326.667969 C 1740.882812 1328.1875 1736.132812 1326.480469 1729.214844 1322.417969 Z M 1792.441406 747.371094 C 1791.789062 748.519531 1791.320312 749.035156 1791.230469 748.128906 C 1791.609375 747.871094 1792.015625 747.621094 1792.441406 747.371094 Z M 1728.886719 1006.21875 C 1723.09375 1011.117188 1722.105469 1009.578125 1728.886719 1006.21875" fill="#476024" fill-rule="evenodd"/></g><g><path d="M 2096.355469 1374.800781 C 2053.664062 1367.359375 2124.34375 1333.519531 2132.9375 1324.5 C 2195.25 1259.140625 2153.339844 1292.339844 2065.261719 1288.921875 C 2066.660156 1277.269531 2083.347656 1226.039062 2091.886719 1218.648438 C 2152.398438 1166.25 2083.535156 1167.898438 2035.386719 1169.75 C 2000.816406 1171.078125 1976.925781 1172.507812 2019.269531 1154.089844 C 2025.113281 1151.550781 2030.632812 1149.109375 2035.847656 1146.789062 C 2156.101562 1093.25 2114.96875 1095.738281 2036.925781 1094.148438 C 2024.734375 1093.910156 2011.632812 1093.558594 1998.109375 1092.878906 C 2004.035156 1084.230469 2020.277344 1071.109375 2037.691406 1056.140625 C 2068.117188 1030.019531 2102.160156 998.265625 2091.359375 974.84375 C 2072.558594 970.402344 2052.777344 973.550781 2039.335938 975.179688 C 2021.246094 977.371094 2014.621094 976.8125 2037.289062 951.339844 C 2038.164062 950.351562 2039.023438 949.378906 2039.886719 948.414062 C 2123.601562 853.441406 2062.917969 878.304688 2041.339844 876 C 2034 875.21875 2031.1875 871.285156 2040.167969 858.390625 C 2040.707031 857.617188 2041.234375 856.863281 2041.746094 856.113281 C 2077.597656 803.75 2059.535156 797.957031 2042.890625 799.457031 C 2039.46875 799.765625 2036.117188 800.382812 2033.289062 800.96875 C 2060.734375 798.851562 2023.242188 848.667969 1948.710938 928.101562 C 2045.515625 879.375 2050.511719 895.269531 1949.398438 985.824219 C 2005.558594 961.289062 2019.511719 968.40625 1936.347656 1048.359375 C 1964.964844 1034.921875 1976.15625 1036.191406 1952.628906 1066.75 C 1960.347656 1073.710938 1968.226562 1080.359375 1976.222656 1086.839844 L 1946.433594 1083.558594 L 1939.808594 1118 C 1954.125 1131.308594 1970.460938 1143.550781 1987.226562 1155.558594 L 1934.488281 1145.621094 L 1929.277344 1172.769531 C 1946.648438 1193.949219 1965.207031 1214.050781 1986.527344 1231.519531 C 1997.003906 1240.109375 2008.183594 1248.058594 2020.195312 1255.199219 L 1928.804688 1238.710938 C 1962.488281 1284.851562 2005.085938 1318.097656 2055.253906 1340.417969 L 1961.101562 1326.671875 C 1977.019531 1369.199219 2006.824219 1401.890625 2051.132812 1424.261719 C 2054.214844 1430.089844 1994.796875 1404.511719 1993.394531 1407.078125 C 1995.808594 1414.898438 2008.953125 1427.519531 2021.558594 1437.75 C 2052.789062 1434.667969 2073.003906 1434.679688 2098.605469 1438.410156 C 2106.378906 1439.539062 2119.375 1439.53125 2135.507812 1438.859375 C 2129.863281 1405.859375 2133.636719 1381.289062 2096.355469 1374.800781" fill="#36461c" fill-rule="evenodd"/></g><g><path d="M 1734.695312 1057.882812 C 1746.441406 1041.230469 1756.527344 1023.539062 1763.871094 1005.0625 C 1755.210938 1011.160156 1744.410156 1016.5 1733.097656 1020.699219 C 1716.59375 1026.820312 1699.023438 1030.492188 1685.527344 1030.480469 C 1691.121094 1027.152344 1711.59375 1005.210938 1731.425781 981.84375 C 1748.398438 961.839844 1764.90625 940.800781 1771.207031 929.519531 C 1763.101562 941.183594 1745.941406 960.292969 1730.9375 970.628906 C 1716.179688 980.792969 1703.476562 982.480469 1703.476562 960.273438 C 1703.476562 936.71875 1632.171875 1003.230469 1602.453125 967.8125 C 1655.414062 850.363281 1458.984375 990.726562 1596.445312 803 C 1633.757812 752.054688 1505.863281 809.9375 1576.363281 755.640625 C 1673.867188 680.558594 1594.128906 714.160156 1560.542969 712.433594 C 1545.535156 711.65625 1539.765625 703.824219 1563.183594 676.058594 C 1565.453125 673.347656 1568.027344 670.445312 1570.886719 667.34375 C 1715.746094 510.242188 1500.082031 676.253906 1592.511719 563.734375 C 1645.691406 498.988281 1646.351562 510.714844 1598.335938 501.53125 C 1598.097656 499.445312 1676.660156 354.800781 1610.34375 380.785156 C 1586.535156 390.105469 1651.472656 299.375 1619.492188 287.648438 C 1601.0625 280.902344 1625.640625 279.261719 1627.976562 227.417969 C 1618.980469 270.5 1596.160156 302.601562 1574.210938 321.976562 C 1659.46875 275.75 1601.628906 347.53125 1529.539062 421.628906 C 1579.320312 415.9375 1600.714844 398.648438 1606.929688 404.734375 C 1591.664062 427.792969 1571.203125 458.988281 1521.074219 506.339844 C 1518.316406 508.953125 1515.457031 511.613281 1512.503906 514.328125 C 1507.871094 518.582031 1503.027344 522.960938 1497.917969 527.464844 C 1526.183594 519.191406 1551.871094 511.945312 1575.582031 505.472656 C 1560.671875 533.015625 1541.960938 553.761719 1522.03125 571.664062 C 1507.199219 584.992188 1491.691406 596.746094 1476.621094 608.554688 L 1554.273438 582.445312 L 1458.746094 687.585938 L 1544.644531 658.039062 L 1452.640625 767.773438 C 1452.835938 768 1453.050781 768.230469 1453.25 768.460938 L 1550.839844 752.871094 L 1459.0625 841.972656 C 1459.953125 842.824219 1460.855469 843.671875 1461.765625 844.507812 L 1500.667969 846.332031 L 1484.585938 862.414062 C 1488.847656 865.234375 1493.289062 867.890625 1497.929688 870.375 L 1478.890625 868.113281 L 1448.71875 898.292969 C 1454.714844 906.652344 1461.5625 914.855469 1469.003906 922.648438 C 1482.5 936.753906 1498.039062 949.503906 1514.414062 959.367188 C 1494.714844 962.574219 1472.960938 958.90625 1451.890625 956.960938 C 1468.832031 992.628906 1497.8125 1021.070312 1531.257812 1041.140625 C 1512.089844 1048.8125 1481.816406 1043.78125 1460.820312 1043.210938 C 1478 1076.421875 1509.328125 1110.261719 1549.46875 1128.761719 L 1475.253906 1126.019531 C 1497.070312 1157.960938 1520.292969 1188.011719 1549.46875 1209.851562 L 1495.867188 1216.730469 C 1507.6875 1235.160156 1521.019531 1249.082031 1534.996094 1261.050781 C 1560.890625 1239.820312 1583.699219 1214.152344 1598.933594 1177.539062 C 1579.9375 1187.140625 1561.355469 1191.089844 1543.277344 1187.851562 C 1568.3125 1159.902344 1594.945312 1133.820312 1603.0625 1086.140625 C 1589.890625 1100.792969 1575.003906 1105.640625 1559.085938 1104.699219 C 1580.046875 1085.339844 1597.640625 1062.3125 1608.332031 1031.820312 C 1608.636719 1030.921875 1608.953125 1030.011719 1609.246094 1029.101562 C 1620.109375 1056.109375 1634.117188 1079.53125 1658.730469 1090.949219 C 1644.917969 1095.140625 1632.683594 1092.960938 1621.621094 1086.140625 C 1636.519531 1119.640625 1649.972656 1153.992188 1690.101562 1172.542969 L 1641.550781 1173.421875 C 1650.753906 1194.089844 1663.425781 1211.480469 1679.125 1226.011719 C 1698.328125 1215.109375 1714.765625 1197.730469 1728.828125 1174.800781 L 1686.222656 1177.550781 C 1706.921875 1161.082031 1726.425781 1143.929688 1737.457031 1121.941406 C 1740.585938 1115.699219 1743.042969 1109.070312 1744.628906 1101.949219 L 1736.664062 1103.691406 C 1719.90625 1107.402344 1700.042969 1112.011719 1684.492188 1115.351562 C 1702.445312 1098.199219 1719.894531 1078.871094 1734.695312 1057.882812" fill="#577d2b" fill-rule="evenodd"/></g></g></svg>